<?xml version="1.0" encoding="UTF-8"?>
<svg width="1204px" height="677px" viewBox="0 0 1204 677" version="1.1" xmlns="http://www.w3.org/2000/svg" xmlns:xlink="http://www.w3.org/1999/xlink">
    <title>C15F0451-D21A-4FC7-8FA4-A926DF892F26</title>
    <defs>
        <path d="M0,661.015278 L0,664.045062 C5.95729167,666.97037 11.0784722,671.462809 14.6319444,677 L19.9621528,677 L19.9621528,661.015278 L0,661.015278 Z M27.278125,661.015278 C37.1024306,663.104784 45.4635417,668.955401 50.79375,677 L56.1239583,677 L56.1239583,661.015278 L27.278125,661.015278 Z M63.3354167,661.015278 C73.1597222,663.104784 81.5208333,668.955401 86.8510417,677 L92.18125,677 L92.18125,661.015278 L63.3354167,661.015278 Z M99.3927083,661.015278 C109.217014,663.104784 117.578125,668.955401 122.908333,677 L128.238542,677 L128.238542,661.015278 L99.3927083,661.015278 Z M135.554514,661.015278 C145.378819,663.104784 153.739931,668.955401 159.070139,677 L164.400347,677 L164.400347,661.015278 L135.554514,661.015278 Z M171.611806,661.015278 C181.436111,663.104784 189.797222,668.955401 195.127431,677 L200.457639,677 L200.457639,661.015278 L171.611806,661.015278 Z M207.669097,661.015278 C217.493403,663.104784 225.854514,668.955401 231.184722,677 L236.514931,677 L236.514931,661.015278 L207.669097,661.015278 Z M243.726389,661.015278 C253.550694,663.104784 261.911806,668.955401 267.242014,677 L272.572222,677 L272.572222,661.015278 L243.726389,661.015278 Z M279.888194,661.015278 C289.7125,663.104784 298.073611,668.955401 303.403819,677 L308.734028,677 L308.734028,661.015278 L279.888194,661.015278 Z M315.945486,661.015278 C325.769792,663.104784 334.130903,668.955401 339.461111,677 L344.791319,677 L344.791319,661.015278 L315.945486,661.015278 Z M352.002778,661.015278 C361.827083,663.104784 370.188194,668.955401 375.518403,677 L380.848611,677 L380.848611,661.015278 L352.002778,661.015278 Z M388.060069,661.015278 C397.884375,663.104784 406.245486,668.955401 411.575694,677 L416.905903,677 L416.905903,661.015278 L388.060069,661.015278 Z M424.221875,661.015278 C434.046181,663.104784 442.407292,668.955401 447.7375,677 L453.067708,677 L453.067708,661.015278 L424.221875,661.015278 Z M460.279167,661.015278 C470.103472,663.104784 478.464583,668.955401 483.794792,677 L489.125,677 L489.125,661.015278 L460.279167,661.015278 Z M496.336458,661.015278 C506.160764,663.104784 514.521875,668.955401 519.852083,677 L525.182292,677 L525.182292,661.015278 L496.336458,661.015278 Z M532.39375,661.015278 C542.218056,663.104784 550.579167,668.955401 555.909375,677 L561.239583,677 L561.239583,661.015278 L532.39375,661.015278 Z M568.555556,661.015278 C578.379861,663.104784 586.740972,668.955401 592.071181,677 L597.401389,677 L597.401389,661.015278 L568.555556,661.015278 Z M604.612847,661.015278 C614.437153,663.104784 622.798264,668.955401 628.128472,677 L633.458681,677 L633.458681,661.015278 L604.612847,661.015278 Z M640.670139,661.015278 C650.494444,663.104784 658.855556,668.955401 664.185764,677 L669.515972,677 L669.515972,661.015278 L640.670139,661.015278 Z M676.727431,661.015278 C686.551736,663.104784 694.912847,668.955401 700.243056,677 L705.573264,677 L705.573264,661.015278 L676.727431,661.015278 Z M712.889236,661.015278 C722.713542,663.104784 731.074653,668.955401 736.404861,677 L741.735069,677 L741.735069,661.015278 L712.889236,661.015278 Z M748.946528,661.015278 C758.770833,663.104784 767.131944,668.955401 772.462153,677 L777.792361,677 L777.792361,661.015278 L748.946528,661.015278 Z M785.003819,661.015278 C794.828125,663.104784 803.189236,668.955401 808.519444,677 L813.849653,677 L813.849653,661.015278 L785.003819,661.015278 Z M821.061111,661.015278 C830.885417,663.104784 839.246528,668.955401 844.576736,677 L849.906944,677 L849.906944,661.015278 L821.061111,661.015278 Z M857.222917,661.015278 C867.047222,663.104784 875.408333,668.955401 880.738542,677 L886.06875,677 L886.06875,661.015278 L857.222917,661.015278 Z M893.280208,661.015278 C903.104514,663.104784 911.465625,668.955401 916.795833,677 L922.126042,677 L922.126042,661.015278 L893.280208,661.015278 Z M929.3375,661.015278 C939.161806,663.104784 947.522917,668.955401 952.853125,677 L958.183333,677 L958.183333,661.015278 L929.3375,661.015278 Z M965.394792,661.015278 C975.219097,663.104784 983.580208,668.955401 988.910417,677 L994.240625,677 L994.240625,661.015278 L965.394792,661.015278 Z M1001.45208,661.015278 C1011.27639,663.104784 1019.6375,668.955401 1024.96771,677 L1030.29792,677 L1030.29792,661.015278 L1001.45208,661.015278 Z M1037.61389,661.015278 C1047.43819,663.104784 1055.79931,668.955401 1061.12951,677 L1066.45972,677 L1066.45972,661.015278 L1037.61389,661.015278 Z M1073.67118,661.015278 C1083.49549,663.104784 1091.8566,668.955401 1097.18681,677 L1102.51701,677 L1102.51701,661.015278 L1073.67118,661.015278 Z M1109.72847,661.015278 C1119.55278,663.104784 1127.91389,668.955401 1133.2441,677 L1138.57431,677 L1138.57431,661.015278 L1109.72847,661.015278 Z M1145.78576,661.015278 C1155.61007,663.104784 1163.97118,668.955401 1169.30139,677 L1174.6316,677 L1174.6316,661.015278 L1145.78576,661.015278 Z M1181.94757,661.015278 C1190.93576,662.895833 1198.66979,668.015123 1204,675.119444 L1204,661.015278 L1181.94757,661.015278 Z M0,624.866821 L0,627.896605 C10.0333333,632.91142 17.5583333,642.314198 19.9621528,653.597531 L19.9621528,624.866821 L0,624.866821 Z M27.278125,624.866821 C41.7010417,627.896605 52.9885417,639.179938 56.0194444,653.597531 L56.0194444,624.866821 L27.278125,624.866821 Z M63.3354167,624.866821 C77.7583333,627.896605 89.0458333,639.179938 92.0767361,653.597531 L92.0767361,624.866821 L63.3354167,624.866821 Z M99.3927083,624.866821 C113.815625,627.896605 125.103125,639.179938 128.134028,653.597531 L128.134028,624.866821 L99.3927083,624.866821 Z M135.554514,624.866821 C149.977431,627.896605 161.264931,639.179938 164.295833,653.597531 L164.295833,624.866821 L135.554514,624.866821 Z M171.611806,624.866821 C186.034722,627.896605 197.322222,639.179938 200.353125,653.597531 L200.353125,624.866821 L171.611806,624.866821 Z M207.669097,624.866821 C222.092014,627.896605 233.379514,639.179938 236.410417,653.597531 L236.410417,624.866821 L207.669097,624.866821 Z M243.726389,624.866821 C258.149306,627.896605 269.436806,639.179938 272.467708,653.597531 L272.467708,624.866821 L243.726389,624.866821 Z M279.888194,624.866821 C294.311111,627.896605 305.598611,639.179938 308.629514,653.597531 L308.629514,624.866821 L279.888194,624.866821 Z M315.945486,624.866821 C330.368403,627.896605 341.655903,639.179938 344.686806,653.597531 L344.686806,624.866821 L315.945486,624.866821 Z M352.002778,624.866821 C366.425694,627.896605 377.713194,639.179938 380.744097,653.597531 L380.744097,624.866821 L352.002778,624.866821 Z M388.060069,624.866821 C402.482986,627.896605 413.770486,639.179938 416.801389,653.597531 L416.801389,624.866821 L388.060069,624.866821 Z M424.221875,624.866821 C438.644792,627.896605 449.932292,639.179938 452.963194,653.597531 L452.963194,624.866821 L424.221875,624.866821 Z M460.279167,624.866821 C474.702083,627.896605 485.989583,639.179938 489.020486,653.597531 L489.020486,624.866821 L460.279167,624.866821 Z M496.336458,624.866821 C510.759375,627.896605 522.046875,639.179938 525.077778,653.597531 L525.077778,624.866821 L496.336458,624.866821 Z M532.39375,624.866821 C546.816667,627.896605 558.104167,639.179938 561.135069,653.597531 L561.135069,624.866821 L532.39375,624.866821 Z M568.555556,624.866821 C582.978472,627.896605 594.265972,639.179938 597.296875,653.597531 L597.296875,624.866821 L568.555556,624.866821 Z M604.612847,624.866821 C619.035764,627.896605 630.323264,639.179938 633.354167,653.597531 L633.354167,624.866821 L604.612847,624.866821 Z M640.670139,624.866821 C655.093056,627.896605 666.380556,639.179938 669.411458,653.597531 L669.411458,624.866821 L640.670139,624.866821 Z M676.727431,624.866821 C691.150347,627.896605 702.437847,639.179938 705.46875,653.597531 L705.46875,624.866821 L676.727431,624.866821 Z M712.889236,624.866821 C727.312153,627.896605 738.599653,639.179938 741.630556,653.597531 L741.630556,624.866821 L712.889236,624.866821 Z M748.946528,624.866821 C763.369444,627.896605 774.656944,639.179938 777.687847,653.597531 L777.687847,624.866821 L748.946528,624.866821 Z M785.003819,624.866821 C799.426736,627.896605 810.714236,639.179938 813.745139,653.597531 L813.745139,624.866821 L785.003819,624.866821 Z M821.061111,624.866821 C835.484028,627.896605 846.771528,639.179938 849.802431,653.597531 L849.802431,624.866821 L821.061111,624.866821 Z M857.222917,624.866821 C871.645833,627.896605 882.933333,639.179938 885.964236,653.597531 L885.964236,624.866821 L857.222917,624.866821 Z M893.280208,624.866821 C907.703125,627.896605 918.990625,639.179938 922.021528,653.597531 L922.021528,624.866821 L893.280208,624.866821 Z M929.3375,624.866821 C943.760417,627.896605 955.047917,639.179938 958.078819,653.597531 L958.078819,624.866821 L929.3375,624.866821 Z M965.394792,624.866821 C979.817708,627.896605 991.105208,639.179938 994.136111,653.597531 L994.136111,624.866821 L965.394792,624.866821 Z M1001.45208,624.866821 C1015.875,627.896605 1027.1625,639.179938 1030.1934,653.597531 L1030.1934,624.866821 L1001.45208,624.866821 Z M1037.61389,624.866821 C1052.03681,627.896605 1063.32431,639.179938 1066.35521,653.597531 L1066.35521,624.866821 L1037.61389,624.866821 Z M1073.67118,624.866821 C1088.0941,627.896605 1099.3816,639.179938 1102.4125,653.597531 L1102.4125,624.866821 L1073.67118,624.866821 Z M1109.72847,624.866821 C1124.15139,627.896605 1135.43889,639.179938 1138.46979,653.597531 L1138.46979,624.866821 L1109.72847,624.866821 Z M1145.78576,624.866821 C1160.20868,627.896605 1171.49618,639.179938 1174.52708,653.597531 L1174.52708,624.866821 L1145.78576,624.866821 Z M1181.94757,624.866821 C1190.93576,626.747377 1198.66979,631.866667 1204,638.970988 L1204,624.866821 L1181.94757,624.866821 Z M0,588.82284 L0,591.852623 C10.0333333,596.867438 17.5583333,606.270216 19.9621528,617.553549 L19.9621528,588.82284 L0,588.82284 Z M27.278125,588.82284 C41.7010417,591.852623 52.9885417,603.135957 56.0194444,617.553549 L56.0194444,588.82284 L27.278125,588.82284 Z M63.3354167,588.82284 C77.7583333,591.852623 89.0458333,603.135957 92.0767361,617.553549 L92.0767361,588.82284 L63.3354167,588.82284 Z M99.3927083,588.82284 C113.815625,591.852623 125.103125,603.135957 128.134028,617.553549 L128.134028,588.82284 L99.3927083,588.82284 Z M135.554514,588.82284 C149.977431,591.852623 161.264931,603.135957 164.295833,617.553549 L164.295833,588.82284 L135.554514,588.82284 Z M171.611806,588.82284 C186.034722,591.852623 197.322222,603.135957 200.353125,617.553549 L200.353125,588.82284 L171.611806,588.82284 Z M207.669097,588.82284 C222.092014,591.852623 233.379514,603.135957 236.410417,617.553549 L236.410417,588.82284 L207.669097,588.82284 Z M243.726389,588.82284 C258.149306,591.852623 269.436806,603.135957 272.467708,617.553549 L272.467708,588.82284 L243.726389,588.82284 Z M279.888194,588.82284 C294.311111,591.852623 305.598611,603.135957 308.629514,617.553549 L308.629514,588.82284 L279.888194,588.82284 Z M315.945486,588.82284 C330.368403,591.852623 341.655903,603.135957 344.686806,617.553549 L344.686806,588.82284 L315.945486,588.82284 Z M352.002778,588.82284 C366.425694,591.852623 377.713194,603.135957 380.744097,617.553549 L380.744097,588.82284 L352.002778,588.82284 Z M388.060069,588.82284 C402.482986,591.852623 413.770486,603.135957 416.801389,617.553549 L416.801389,588.82284 L388.060069,588.82284 Z M424.221875,588.82284 C438.644792,591.852623 449.932292,603.135957 452.963194,617.553549 L452.963194,588.82284 L424.221875,588.82284 Z M460.279167,588.82284 C474.702083,591.852623 485.989583,603.135957 489.020486,617.553549 L489.020486,588.82284 L460.279167,588.82284 Z M496.336458,588.82284 C510.759375,591.852623 522.046875,603.135957 525.077778,617.553549 L525.077778,588.82284 L496.336458,588.82284 Z M532.39375,588.82284 C546.816667,591.852623 558.104167,603.135957 561.135069,617.553549 L561.135069,588.82284 L532.39375,588.82284 Z M568.555556,588.82284 C582.978472,591.852623 594.265972,603.135957 597.296875,617.553549 L597.296875,588.82284 L568.555556,588.82284 Z M604.612847,588.82284 C619.035764,591.852623 630.323264,603.135957 633.354167,617.553549 L633.354167,588.82284 L604.612847,588.82284 Z M640.670139,588.82284 C655.093056,591.852623 666.380556,603.135957 669.411458,617.553549 L669.411458,588.82284 L640.670139,588.82284 Z M676.727431,588.82284 C691.150347,591.852623 702.437847,603.135957 705.46875,617.553549 L705.46875,588.82284 L676.727431,588.82284 Z M712.889236,588.82284 C727.312153,591.852623 738.599653,603.135957 741.630556,617.553549 L741.630556,588.82284 L712.889236,588.82284 Z M748.946528,588.82284 C763.369444,591.852623 774.656944,603.135957 777.687847,617.553549 L777.687847,588.82284 L748.946528,588.82284 Z M785.003819,588.82284 C799.426736,591.852623 810.714236,603.135957 813.745139,617.553549 L813.745139,588.82284 L785.003819,588.82284 Z M821.061111,588.82284 C835.484028,591.852623 846.771528,603.135957 849.802431,617.553549 L849.802431,588.82284 L821.061111,588.82284 Z M857.222917,588.82284 C871.645833,591.852623 882.933333,603.135957 885.964236,617.553549 L885.964236,588.82284 L857.222917,588.82284 Z M893.280208,588.82284 C907.703125,591.852623 918.990625,603.135957 922.021528,617.553549 L922.021528,588.82284 L893.280208,588.82284 Z M929.3375,588.82284 C943.760417,591.852623 955.047917,603.135957 958.078819,617.553549 L958.078819,588.82284 L929.3375,588.82284 Z M965.394792,588.82284 C979.817708,591.852623 991.105208,603.135957 994.136111,617.553549 L994.136111,588.82284 L965.394792,588.82284 Z M1001.45208,588.82284 C1015.875,591.852623 1027.1625,603.135957 1030.1934,617.553549 L1030.1934,588.82284 L1001.45208,588.82284 Z M1037.61389,588.82284 C1052.03681,591.852623 1063.32431,603.135957 1066.35521,617.553549 L1066.35521,588.82284 L1037.61389,588.82284 Z M1073.67118,588.82284 C1088.0941,591.852623 1099.3816,603.135957 1102.4125,617.553549 L1102.4125,588.82284 L1073.67118,588.82284 Z M1109.72847,588.82284 C1124.15139,591.852623 1135.43889,603.135957 1138.46979,617.553549 L1138.46979,588.82284 L1109.72847,588.82284 Z M1145.78576,588.82284 C1160.20868,591.852623 1171.49618,603.135957 1174.52708,617.553549 L1174.52708,588.82284 L1145.78576,588.82284 Z M1181.94757,588.82284 C1190.93576,590.703395 1198.66979,595.822685 1204,602.927006 L1204,588.82284 L1181.94757,588.82284 Z M0,552.778858 L0,555.808642 C10.0333333,560.823457 17.5583333,570.226235 19.9621528,581.509568 L19.9621528,552.778858 L0,552.778858 Z M27.278125,552.778858 C41.7010417,555.808642 52.9885417,567.091975 56.0194444,581.509568 L56.0194444,552.778858 L27.278125,552.778858 Z M63.3354167,552.778858 C77.7583333,555.808642 89.0458333,567.091975 92.0767361,581.509568 L92.0767361,552.778858 L63.3354167,552.778858 Z M99.3927083,552.778858 C113.815625,555.808642 125.103125,567.091975 128.134028,581.509568 L128.134028,552.778858 L99.3927083,552.778858 Z M135.554514,552.778858 C149.977431,555.808642 161.264931,567.091975 164.295833,581.509568 L164.295833,552.778858 L135.554514,552.778858 Z M171.611806,552.778858 C186.034722,555.808642 197.322222,567.091975 200.353125,581.509568 L200.353125,552.778858 L171.611806,552.778858 Z M207.669097,552.778858 C222.092014,555.808642 233.379514,567.091975 236.410417,581.509568 L236.410417,552.778858 L207.669097,552.778858 Z M243.726389,552.778858 C258.149306,555.808642 269.436806,567.091975 272.467708,581.509568 L272.467708,552.778858 L243.726389,552.778858 Z M279.888194,552.778858 C294.311111,555.808642 305.598611,567.091975 308.629514,581.509568 L308.629514,552.778858 L279.888194,552.778858 Z M315.945486,552.778858 C330.368403,555.808642 341.655903,567.091975 344.686806,581.509568 L344.686806,552.778858 L315.945486,552.778858 Z M352.002778,552.778858 C366.425694,555.808642 377.713194,567.091975 380.744097,581.509568 L380.744097,552.778858 L352.002778,552.778858 Z M388.060069,552.778858 C402.482986,555.808642 413.770486,567.091975 416.801389,581.509568 L416.801389,552.778858 L388.060069,552.778858 Z M424.221875,552.778858 C438.644792,555.808642 449.932292,567.091975 452.963194,581.509568 L452.963194,552.778858 L424.221875,552.778858 Z M460.279167,552.778858 C474.702083,555.808642 485.989583,567.091975 489.020486,581.509568 L489.020486,552.778858 L460.279167,552.778858 Z M496.336458,552.778858 C510.759375,555.808642 522.046875,567.091975 525.077778,581.509568 L525.077778,552.778858 L496.336458,552.778858 Z M532.39375,552.778858 C546.816667,555.808642 558.104167,567.091975 561.135069,581.509568 L561.135069,552.778858 L532.39375,552.778858 Z M568.555556,552.778858 C582.978472,555.808642 594.265972,567.091975 597.296875,581.509568 L597.296875,552.778858 L568.555556,552.778858 Z M604.612847,552.778858 C619.035764,555.808642 630.323264,567.091975 633.354167,581.509568 L633.354167,552.778858 L604.612847,552.778858 Z M640.670139,552.778858 C655.093056,555.808642 666.380556,567.091975 669.411458,581.509568 L669.411458,552.778858 L640.670139,552.778858 Z M676.727431,552.778858 C691.150347,555.808642 702.437847,567.091975 705.46875,581.509568 L705.46875,552.778858 L676.727431,552.778858 Z M712.889236,552.778858 C727.312153,555.808642 738.599653,567.091975 741.630556,581.509568 L741.630556,552.778858 L712.889236,552.778858 Z M748.946528,552.778858 C763.369444,555.808642 774.656944,567.091975 777.687847,581.509568 L777.687847,552.778858 L748.946528,552.778858 Z M785.003819,552.778858 C799.426736,555.808642 810.714236,567.091975 813.745139,581.509568 L813.745139,552.778858 L785.003819,552.778858 Z M821.061111,552.778858 C835.484028,555.808642 846.771528,567.091975 849.802431,581.509568 L849.802431,552.778858 L821.061111,552.778858 Z M857.222917,552.778858 C871.645833,555.808642 882.933333,567.091975 885.964236,581.509568 L885.964236,552.778858 L857.222917,552.778858 Z M893.280208,552.778858 C907.703125,555.808642 918.990625,567.091975 922.021528,581.509568 L922.021528,552.778858 L893.280208,552.778858 Z M929.3375,552.778858 C943.760417,555.808642 955.047917,567.091975 958.078819,581.509568 L958.078819,552.778858 L929.3375,552.778858 Z M965.394792,552.778858 C979.817708,555.808642 991.105208,567.091975 994.136111,581.509568 L994.136111,552.778858 L965.394792,552.778858 Z M1001.45208,552.778858 C1015.875,555.808642 1027.1625,567.091975 1030.1934,581.509568 L1030.1934,552.778858 L1001.45208,552.778858 Z M1037.61389,552.778858 C1052.03681,555.808642 1063.32431,567.091975 1066.35521,581.509568 L1066.35521,552.778858 L1037.61389,552.778858 Z M1073.67118,552.778858 C1088.0941,555.808642 1099.3816,567.091975 1102.4125,581.509568 L1102.4125,552.778858 L1073.67118,552.778858 Z M1109.72847,552.778858 C1124.15139,555.808642 1135.43889,567.091975 1138.46979,581.509568 L1138.46979,552.778858 L1109.72847,552.778858 Z M1145.78576,552.778858 C1160.20868,555.808642 1171.49618,567.091975 1174.52708,581.509568 L1174.52708,552.778858 L1145.78576,552.778858 Z M1181.94757,552.778858 C1190.93576,554.659414 1198.66979,559.778704 1204,566.883025 L1204,552.778858 L1181.94757,552.778858 Z M0,516.734877 L0,519.76466 C10.0333333,524.779475 17.5583333,534.182253 19.9621528,545.465586 L19.9621528,516.734877 L0,516.734877 Z M27.278125,516.734877 C41.7010417,519.76466 52.9885417,531.047994 56.0194444,545.465586 L56.0194444,516.734877 L27.278125,516.734877 Z M63.3354167,516.734877 C77.7583333,519.76466 89.0458333,531.047994 92.0767361,545.465586 L92.0767361,516.734877 L63.3354167,516.734877 Z M99.3927083,516.734877 C113.815625,519.76466 125.103125,531.047994 128.134028,545.465586 L128.134028,516.734877 L99.3927083,516.734877 Z M135.554514,516.734877 C149.977431,519.76466 161.264931,531.047994 164.295833,545.465586 L164.295833,516.734877 L135.554514,516.734877 Z M171.611806,516.734877 C186.034722,519.76466 197.322222,531.047994 200.353125,545.465586 L200.353125,516.734877 L171.611806,516.734877 Z M207.669097,516.734877 C222.092014,519.76466 233.379514,531.047994 236.410417,545.465586 L236.410417,516.734877 L207.669097,516.734877 Z M243.726389,516.734877 C258.149306,519.76466 269.436806,531.047994 272.467708,545.465586 L272.467708,516.734877 L243.726389,516.734877 Z M279.888194,516.734877 C294.311111,519.76466 305.598611,531.047994 308.629514,545.465586 L308.629514,516.734877 L279.888194,516.734877 Z M315.945486,516.734877 C330.368403,519.76466 341.655903,531.047994 344.686806,545.465586 L344.686806,516.734877 L315.945486,516.734877 Z M352.002778,516.734877 C366.425694,519.76466 377.713194,531.047994 380.744097,545.465586 L380.744097,516.734877 L352.002778,516.734877 Z M388.060069,516.734877 C402.482986,519.76466 413.770486,531.047994 416.801389,545.465586 L416.801389,516.734877 L388.060069,516.734877 Z M424.221875,516.734877 C438.644792,519.76466 449.932292,531.047994 452.963194,545.465586 L452.963194,516.734877 L424.221875,516.734877 Z M460.279167,516.734877 C474.702083,519.76466 485.989583,531.047994 489.020486,545.465586 L489.020486,516.734877 L460.279167,516.734877 Z M496.336458,516.734877 C510.759375,519.76466 522.046875,531.047994 525.077778,545.465586 L525.077778,516.734877 L496.336458,516.734877 Z M532.39375,516.734877 C546.816667,519.76466 558.104167,531.047994 561.135069,545.465586 L561.135069,516.734877 L532.39375,516.734877 Z M568.555556,516.734877 C582.978472,519.76466 594.265972,531.047994 597.296875,545.465586 L597.296875,516.734877 L568.555556,516.734877 Z M604.612847,516.734877 C619.035764,519.76466 630.323264,531.047994 633.354167,545.465586 L633.354167,516.734877 L604.612847,516.734877 Z M640.670139,516.734877 C655.093056,519.76466 666.380556,531.047994 669.411458,545.465586 L669.411458,516.734877 L640.670139,516.734877 Z M676.727431,516.734877 C691.150347,519.76466 702.437847,531.047994 705.46875,545.465586 L705.46875,516.734877 L676.727431,516.734877 Z M712.889236,516.734877 C727.312153,519.76466 738.599653,531.047994 741.630556,545.465586 L741.630556,516.734877 L712.889236,516.734877 Z M748.946528,516.734877 C763.369444,519.76466 774.656944,531.047994 777.687847,545.465586 L777.687847,516.734877 L748.946528,516.734877 Z M785.003819,516.734877 C799.426736,519.76466 810.714236,531.047994 813.745139,545.465586 L813.745139,516.734877 L785.003819,516.734877 Z M821.061111,516.734877 C835.484028,519.76466 846.771528,531.047994 849.802431,545.465586 L849.802431,516.734877 L821.061111,516.734877 Z M857.222917,516.734877 C871.645833,519.76466 882.933333,531.047994 885.964236,545.465586 L885.964236,516.734877 L857.222917,516.734877 Z M893.280208,516.734877 C907.703125,519.76466 918.990625,531.047994 922.021528,545.465586 L922.021528,516.734877 L893.280208,516.734877 Z M929.3375,516.734877 C943.760417,519.76466 955.047917,531.047994 958.078819,545.465586 L958.078819,516.734877 L929.3375,516.734877 Z M965.394792,516.734877 C979.817708,519.76466 991.105208,531.047994 994.136111,545.465586 L994.136111,516.734877 L965.394792,516.734877 Z M1001.45208,516.734877 C1015.875,519.76466 1027.1625,531.047994 1030.1934,545.465586 L1030.1934,516.734877 L1001.45208,516.734877 Z M1037.61389,516.734877 C1052.03681,519.76466 1063.32431,531.047994 1066.35521,545.465586 L1066.35521,516.734877 L1037.61389,516.734877 Z M1073.67118,516.734877 C1088.0941,519.76466 1099.3816,531.047994 1102.4125,545.465586 L1102.4125,516.734877 L1073.67118,516.734877 Z M1109.72847,516.734877 C1124.15139,519.76466 1135.43889,531.047994 1138.46979,545.465586 L1138.46979,516.734877 L1109.72847,516.734877 Z M1145.78576,516.734877 C1160.20868,519.76466 1171.49618,531.047994 1174.52708,545.465586 L1174.52708,516.734877 L1145.78576,516.734877 Z M1181.94757,516.734877 C1190.93576,518.615432 1198.66979,523.734722 1204,530.839043 L1204,516.734877 L1181.94757,516.734877 Z M0,480.58642 L0,483.616204 C10.0333333,488.631019 17.5583333,498.033796 19.9621528,509.31713 L19.9621528,480.58642 L0,480.58642 Z M27.278125,480.58642 C41.7010417,483.616204 52.9885417,494.899537 56.0194444,509.31713 L56.0194444,480.58642 L27.278125,480.58642 Z M63.3354167,480.58642 C77.7583333,483.616204 89.0458333,494.899537 92.0767361,509.31713 L92.0767361,480.58642 L63.3354167,480.58642 Z M99.3927083,480.58642 C113.815625,483.616204 125.103125,494.899537 128.134028,509.31713 L128.134028,480.58642 L99.3927083,480.58642 Z M135.554514,480.58642 C149.977431,483.616204 161.264931,494.899537 164.295833,509.31713 L164.295833,480.58642 L135.554514,480.58642 Z M171.611806,480.58642 C186.034722,483.616204 197.322222,494.899537 200.353125,509.31713 L200.353125,480.58642 L171.611806,480.58642 Z M207.669097,480.58642 C222.092014,483.616204 233.379514,494.899537 236.410417,509.31713 L236.410417,480.58642 L207.669097,480.58642 Z M243.726389,480.58642 C258.149306,483.616204 269.436806,494.899537 272.467708,509.31713 L272.467708,480.58642 L243.726389,480.58642 Z M279.888194,480.58642 C294.311111,483.616204 305.598611,494.899537 308.629514,509.31713 L308.629514,480.58642 L279.888194,480.58642 Z M315.945486,480.58642 C330.368403,483.616204 341.655903,494.899537 344.686806,509.31713 L344.686806,480.58642 L315.945486,480.58642 Z M352.002778,480.58642 C366.425694,483.616204 377.713194,494.899537 380.744097,509.31713 L380.744097,480.58642 L352.002778,480.58642 Z M388.060069,480.58642 C402.482986,483.616204 413.770486,494.899537 416.801389,509.31713 L416.801389,480.58642 L388.060069,480.58642 Z M424.221875,480.58642 C438.644792,483.616204 449.932292,494.899537 452.963194,509.31713 L452.963194,480.58642 L424.221875,480.58642 Z M460.279167,480.58642 C474.702083,483.616204 485.989583,494.899537 489.020486,509.31713 L489.020486,480.58642 L460.279167,480.58642 Z M496.336458,480.58642 C510.759375,483.616204 522.046875,494.899537 525.077778,509.31713 L525.077778,480.58642 L496.336458,480.58642 Z M532.39375,480.58642 C546.816667,483.616204 558.104167,494.899537 561.135069,509.31713 L561.135069,480.58642 L532.39375,480.58642 Z M568.555556,480.58642 C582.978472,483.616204 594.265972,494.899537 597.296875,509.31713 L597.296875,480.58642 L568.555556,480.58642 Z M604.612847,480.58642 C619.035764,483.616204 630.323264,494.899537 633.354167,509.31713 L633.354167,480.58642 L604.612847,480.58642 Z M640.670139,480.58642 C655.093056,483.616204 666.380556,494.899537 669.411458,509.31713 L669.411458,480.58642 L640.670139,480.58642 Z M676.727431,480.58642 C691.150347,483.616204 702.437847,494.899537 705.46875,509.31713 L705.46875,480.58642 L676.727431,480.58642 Z M712.889236,480.58642 C727.312153,483.616204 738.599653,494.899537 741.630556,509.31713 L741.630556,480.58642 L712.889236,480.58642 Z M748.946528,480.58642 C763.369444,483.616204 774.656944,494.899537 777.687847,509.31713 L777.687847,480.58642 L748.946528,480.58642 Z M785.003819,480.58642 C799.426736,483.616204 810.714236,494.899537 813.745139,509.31713 L813.745139,480.58642 L785.003819,480.58642 Z M821.061111,480.58642 C835.484028,483.616204 846.771528,494.899537 849.802431,509.31713 L849.802431,480.58642 L821.061111,480.58642 Z M857.222917,480.58642 C871.645833,483.616204 882.933333,494.899537 885.964236,509.31713 L885.964236,480.58642 L857.222917,480.58642 Z M893.280208,480.58642 C907.703125,483.616204 918.990625,494.899537 922.021528,509.31713 L922.021528,480.58642 L893.280208,480.58642 Z M929.3375,480.58642 C943.760417,483.616204 955.047917,494.899537 958.078819,509.31713 L958.078819,480.58642 L929.3375,480.58642 Z M965.394792,480.58642 C979.817708,483.616204 991.105208,494.899537 994.136111,509.31713 L994.136111,480.58642 L965.394792,480.58642 Z M1001.45208,480.58642 C1015.875,483.616204 1027.1625,494.899537 1030.1934,509.31713 L1030.1934,480.58642 L1001.45208,480.58642 Z M1037.61389,480.58642 C1052.03681,483.616204 1063.32431,494.899537 1066.35521,509.31713 L1066.35521,480.58642 L1037.61389,480.58642 Z M1073.67118,480.58642 C1088.0941,483.616204 1099.3816,494.899537 1102.4125,509.31713 L1102.4125,480.58642 L1073.67118,480.58642 Z M1109.72847,480.58642 C1124.15139,483.616204 1135.43889,494.899537 1138.46979,509.31713 L1138.46979,480.58642 L1109.72847,480.58642 Z M1145.78576,480.58642 C1160.20868,483.616204 1171.49618,494.899537 1174.52708,509.31713 L1174.52708,480.58642 L1145.78576,480.58642 Z M1181.94757,480.58642 C1190.93576,482.466975 1198.66979,487.586265 1204,494.690586 L1204,480.58642 L1181.94757,480.58642 Z M0,444.542438 L0,447.572222 C10.0333333,452.587037 17.5583333,461.989815 19.9621528,473.273148 L19.9621528,444.542438 L0,444.542438 Z M27.278125,444.542438 C41.7010417,447.572222 52.9885417,458.855556 56.0194444,473.273148 L56.0194444,444.542438 L27.278125,444.542438 Z M63.3354167,444.542438 C77.7583333,447.572222 89.0458333,458.855556 92.0767361,473.273148 L92.0767361,444.542438 L63.3354167,444.542438 Z M99.3927083,444.542438 C113.815625,447.572222 125.103125,458.855556 128.134028,473.273148 L128.134028,444.542438 L99.3927083,444.542438 Z M135.554514,444.542438 C149.977431,447.572222 161.264931,458.855556 164.295833,473.273148 L164.295833,444.542438 L135.554514,444.542438 Z M171.611806,444.542438 C186.034722,447.572222 197.322222,458.855556 200.353125,473.273148 L200.353125,444.542438 L171.611806,444.542438 Z M207.669097,444.542438 C222.092014,447.572222 233.379514,458.855556 236.410417,473.273148 L236.410417,444.542438 L207.669097,444.542438 Z M243.726389,444.542438 C258.149306,447.572222 269.436806,458.855556 272.467708,473.273148 L272.467708,444.542438 L243.726389,444.542438 Z M279.888194,444.542438 C294.311111,447.572222 305.598611,458.855556 308.629514,473.273148 L308.629514,444.542438 L279.888194,444.542438 Z M315.945486,444.542438 C330.368403,447.572222 341.655903,458.855556 344.686806,473.273148 L344.686806,444.542438 L315.945486,444.542438 Z M352.002778,444.542438 C366.425694,447.572222 377.713194,458.855556 380.744097,473.273148 L380.744097,444.542438 L352.002778,444.542438 Z M388.060069,444.542438 C402.482986,447.572222 413.770486,458.855556 416.801389,473.273148 L416.801389,444.542438 L388.060069,444.542438 Z M424.221875,444.542438 C438.644792,447.572222 449.932292,458.855556 452.963194,473.273148 L452.963194,444.542438 L424.221875,444.542438 Z M460.279167,444.542438 C474.702083,447.572222 485.989583,458.855556 489.020486,473.273148 L489.020486,444.542438 L460.279167,444.542438 Z M496.336458,444.542438 C510.759375,447.572222 522.046875,458.855556 525.077778,473.273148 L525.077778,444.542438 L496.336458,444.542438 Z M532.39375,444.542438 C546.816667,447.572222 558.104167,458.855556 561.135069,473.273148 L561.135069,444.542438 L532.39375,444.542438 Z M568.555556,444.542438 C582.978472,447.572222 594.265972,458.855556 597.296875,473.273148 L597.296875,444.542438 L568.555556,444.542438 Z M604.612847,444.542438 C619.035764,447.572222 630.323264,458.855556 633.354167,473.273148 L633.354167,444.542438 L604.612847,444.542438 Z M640.670139,444.542438 C655.093056,447.572222 666.380556,458.855556 669.411458,473.273148 L669.411458,444.542438 L640.670139,444.542438 Z M676.727431,444.542438 C691.150347,447.572222 702.437847,458.855556 705.46875,473.273148 L705.46875,444.542438 L676.727431,444.542438 Z M712.889236,444.542438 C727.312153,447.572222 738.599653,458.855556 741.630556,473.273148 L741.630556,444.542438 L712.889236,444.542438 Z M748.946528,444.542438 C763.369444,447.572222 774.656944,458.855556 777.687847,473.273148 L777.687847,444.542438 L748.946528,444.542438 Z M785.003819,444.542438 C799.426736,447.572222 810.714236,458.855556 813.745139,473.273148 L813.745139,444.542438 L785.003819,444.542438 Z M821.061111,444.542438 C835.484028,447.572222 846.771528,458.855556 849.802431,473.273148 L849.802431,444.542438 L821.061111,444.542438 Z M857.222917,444.542438 C871.645833,447.572222 882.933333,458.855556 885.964236,473.273148 L885.964236,444.542438 L857.222917,444.542438 Z M893.280208,444.542438 C907.703125,447.572222 918.990625,458.855556 922.021528,473.273148 L922.021528,444.542438 L893.280208,444.542438 Z M929.3375,444.542438 C943.760417,447.572222 955.047917,458.855556 958.078819,473.273148 L958.078819,444.542438 L929.3375,444.542438 Z M965.394792,444.542438 C979.817708,447.572222 991.105208,458.855556 994.136111,473.273148 L994.136111,444.542438 L965.394792,444.542438 Z M1001.45208,444.542438 C1015.875,447.572222 1027.1625,458.855556 1030.1934,473.273148 L1030.1934,444.542438 L1001.45208,444.542438 Z M1037.61389,444.542438 C1052.03681,447.572222 1063.32431,458.855556 1066.35521,473.273148 L1066.35521,444.542438 L1037.61389,444.542438 Z M1073.67118,444.542438 C1088.0941,447.572222 1099.3816,458.855556 1102.4125,473.273148 L1102.4125,444.542438 L1073.67118,444.542438 Z M1109.72847,444.542438 C1124.15139,447.572222 1135.43889,458.855556 1138.46979,473.273148 L1138.46979,444.542438 L1109.72847,444.542438 Z M1145.78576,444.542438 C1160.20868,447.572222 1171.49618,458.855556 1174.52708,473.273148 L1174.52708,444.542438 L1145.78576,444.542438 Z M1181.94757,444.542438 C1190.93576,446.422994 1198.66979,451.542284 1204,458.646605 L1204,444.542438 L1181.94757,444.542438 Z M0,408.498457 L0,411.528241 C10.0333333,416.543056 17.5583333,425.945833 19.9621528,437.229167 L19.9621528,408.498457 L0,408.498457 Z M27.278125,408.498457 C41.7010417,411.528241 52.9885417,422.811574 56.0194444,437.229167 L56.0194444,408.498457 L27.278125,408.498457 Z M63.3354167,408.498457 C77.7583333,411.528241 89.0458333,422.811574 92.0767361,437.229167 L92.0767361,408.498457 L63.3354167,408.498457 Z M99.3927083,408.498457 C113.815625,411.528241 125.103125,422.811574 128.134028,437.229167 L128.134028,408.498457 L99.3927083,408.498457 Z M135.554514,408.498457 C149.977431,411.528241 161.264931,422.811574 164.295833,437.229167 L164.295833,408.498457 L135.554514,408.498457 Z M171.611806,408.498457 C186.034722,411.528241 197.322222,422.811574 200.353125,437.229167 L200.353125,408.498457 L171.611806,408.498457 Z M207.669097,408.498457 C222.092014,411.528241 233.379514,422.811574 236.410417,437.229167 L236.410417,408.498457 L207.669097,408.498457 Z M243.726389,408.498457 C258.149306,411.528241 269.436806,422.811574 272.467708,437.229167 L272.467708,408.498457 L243.726389,408.498457 Z M279.888194,408.498457 C294.311111,411.528241 305.598611,422.811574 308.629514,437.229167 L308.629514,408.498457 L279.888194,408.498457 Z M315.945486,408.498457 C330.368403,411.528241 341.655903,422.811574 344.686806,437.229167 L344.686806,408.498457 L315.945486,408.498457 Z M352.002778,408.498457 C366.425694,411.528241 377.713194,422.811574 380.744097,437.229167 L380.744097,408.498457 L352.002778,408.498457 Z M388.060069,408.498457 C402.482986,411.528241 413.770486,422.811574 416.801389,437.229167 L416.801389,408.498457 L388.060069,408.498457 Z M424.221875,408.498457 C438.644792,411.528241 449.932292,422.811574 452.963194,437.229167 L452.963194,408.498457 L424.221875,408.498457 Z M460.279167,408.498457 C474.702083,411.528241 485.989583,422.811574 489.020486,437.229167 L489.020486,408.498457 L460.279167,408.498457 Z M496.336458,408.498457 C510.759375,411.528241 522.046875,422.811574 525.077778,437.229167 L525.077778,408.498457 L496.336458,408.498457 Z M532.39375,408.498457 C546.816667,411.528241 558.104167,422.811574 561.135069,437.229167 L561.135069,408.498457 L532.39375,408.498457 Z M568.555556,408.498457 C582.978472,411.528241 594.265972,422.811574 597.296875,437.229167 L597.296875,408.498457 L568.555556,408.498457 Z M604.612847,408.498457 C619.035764,411.528241 630.323264,422.811574 633.354167,437.229167 L633.354167,408.498457 L604.612847,408.498457 Z M640.670139,408.498457 C655.093056,411.528241 666.380556,422.811574 669.411458,437.229167 L669.411458,408.498457 L640.670139,408.498457 Z M676.727431,408.498457 C691.150347,411.528241 702.437847,422.811574 705.46875,437.229167 L705.46875,408.498457 L676.727431,408.498457 Z M712.889236,408.498457 C727.312153,411.528241 738.599653,422.811574 741.630556,437.229167 L741.630556,408.498457 L712.889236,408.498457 Z M748.946528,408.498457 C763.369444,411.528241 774.656944,422.811574 777.687847,437.229167 L777.687847,408.498457 L748.946528,408.498457 Z M785.003819,408.498457 C799.426736,411.528241 810.714236,422.811574 813.745139,437.229167 L813.745139,408.498457 L785.003819,408.498457 Z M821.061111,408.498457 C835.484028,411.528241 846.771528,422.811574 849.802431,437.229167 L849.802431,408.498457 L821.061111,408.498457 Z M857.222917,408.498457 C871.645833,411.528241 882.933333,422.811574 885.964236,437.229167 L885.964236,408.498457 L857.222917,408.498457 Z M893.280208,408.498457 C907.703125,411.528241 918.990625,422.811574 922.021528,437.229167 L922.021528,408.498457 L893.280208,408.498457 Z M929.3375,408.498457 C943.760417,411.528241 955.047917,422.811574 958.078819,437.229167 L958.078819,408.498457 L929.3375,408.498457 Z M965.394792,408.498457 C979.817708,411.528241 991.105208,422.811574 994.136111,437.229167 L994.136111,408.498457 L965.394792,408.498457 Z M1001.45208,408.498457 C1015.875,411.528241 1027.1625,422.811574 1030.1934,437.229167 L1030.1934,408.498457 L1001.45208,408.498457 Z M1037.61389,408.498457 C1052.03681,411.528241 1063.32431,422.811574 1066.35521,437.229167 L1066.35521,408.498457 L1037.61389,408.498457 Z M1073.67118,408.498457 C1088.0941,411.528241 1099.3816,422.811574 1102.4125,437.229167 L1102.4125,408.498457 L1073.67118,408.498457 Z M1109.72847,408.498457 C1124.15139,411.528241 1135.43889,422.811574 1138.46979,437.229167 L1138.46979,408.498457 L1109.72847,408.498457 Z M1145.78576,408.498457 C1160.20868,411.528241 1171.49618,422.811574 1174.52708,437.229167 L1174.52708,408.498457 L1145.78576,408.498457 Z M1181.94757,408.498457 C1190.93576,410.379012 1198.66979,415.498302 1204,422.602623 L1204,408.498457 L1181.94757,408.498457 Z M0,372.454475 L0,375.484259 C10.0333333,380.499074 17.5583333,389.901852 19.9621528,401.185185 L19.9621528,372.454475 L0,372.454475 Z M27.278125,372.454475 C41.7010417,375.484259 52.9885417,386.767593 56.0194444,401.185185 L56.0194444,372.454475 L27.278125,372.454475 Z M63.3354167,372.454475 C77.7583333,375.484259 89.0458333,386.767593 92.0767361,401.185185 L92.0767361,372.454475 L63.3354167,372.454475 Z M99.3927083,372.454475 C113.815625,375.484259 125.103125,386.767593 128.134028,401.185185 L128.134028,372.454475 L99.3927083,372.454475 Z M135.554514,372.454475 C149.977431,375.484259 161.264931,386.767593 164.295833,401.185185 L164.295833,372.454475 L135.554514,372.454475 Z M171.611806,372.454475 C186.034722,375.484259 197.322222,386.767593 200.353125,401.185185 L200.353125,372.454475 L171.611806,372.454475 Z M207.669097,372.454475 C222.092014,375.484259 233.379514,386.767593 236.410417,401.185185 L236.410417,372.454475 L207.669097,372.454475 Z M243.726389,372.454475 C258.149306,375.484259 269.436806,386.767593 272.467708,401.185185 L272.467708,372.454475 L243.726389,372.454475 Z M279.888194,372.454475 C294.311111,375.484259 305.598611,386.767593 308.629514,401.185185 L308.629514,372.454475 L279.888194,372.454475 Z M315.945486,372.454475 C330.368403,375.484259 341.655903,386.767593 344.686806,401.185185 L344.686806,372.454475 L315.945486,372.454475 Z M352.002778,372.454475 C366.425694,375.484259 377.713194,386.767593 380.744097,401.185185 L380.744097,372.454475 L352.002778,372.454475 Z M388.060069,372.454475 C402.482986,375.484259 413.770486,386.767593 416.801389,401.185185 L416.801389,372.454475 L388.060069,372.454475 Z M424.221875,372.454475 C438.644792,375.484259 449.932292,386.767593 452.963194,401.185185 L452.963194,372.454475 L424.221875,372.454475 Z M460.279167,372.454475 C474.702083,375.484259 485.989583,386.767593 489.020486,401.185185 L489.020486,372.454475 L460.279167,372.454475 Z M496.336458,372.454475 C510.759375,375.484259 522.046875,386.767593 525.077778,401.185185 L525.077778,372.454475 L496.336458,372.454475 Z M532.39375,372.454475 C546.816667,375.484259 558.104167,386.767593 561.135069,401.185185 L561.135069,372.454475 L532.39375,372.454475 Z M568.555556,372.454475 C582.978472,375.484259 594.265972,386.767593 597.296875,401.185185 L597.296875,372.454475 L568.555556,372.454475 Z M604.612847,372.454475 C619.035764,375.484259 630.323264,386.767593 633.354167,401.185185 L633.354167,372.454475 L604.612847,372.454475 Z M640.670139,372.454475 C655.093056,375.484259 666.380556,386.767593 669.411458,401.185185 L669.411458,372.454475 L640.670139,372.454475 Z M676.727431,372.454475 C691.150347,375.484259 702.437847,386.767593 705.46875,401.185185 L705.46875,372.454475 L676.727431,372.454475 Z M712.889236,372.454475 C727.312153,375.484259 738.599653,386.767593 741.630556,401.185185 L741.630556,372.454475 L712.889236,372.454475 Z M748.946528,372.454475 C763.369444,375.484259 774.656944,386.767593 777.687847,401.185185 L777.687847,372.454475 L748.946528,372.454475 Z M785.003819,372.454475 C799.426736,375.484259 810.714236,386.767593 813.745139,401.185185 L813.745139,372.454475 L785.003819,372.454475 Z M821.061111,372.454475 C835.484028,375.484259 846.771528,386.767593 849.802431,401.185185 L849.802431,372.454475 L821.061111,372.454475 Z M857.222917,372.454475 C871.645833,375.484259 882.933333,386.767593 885.964236,401.185185 L885.964236,372.454475 L857.222917,372.454475 Z M893.280208,372.454475 C907.703125,375.484259 918.990625,386.767593 922.021528,401.185185 L922.021528,372.454475 L893.280208,372.454475 Z M929.3375,372.454475 C943.760417,375.484259 955.047917,386.767593 958.078819,401.185185 L958.078819,372.454475 L929.3375,372.454475 Z M965.394792,372.454475 C979.817708,375.484259 991.105208,386.767593 994.136111,401.185185 L994.136111,372.454475 L965.394792,372.454475 Z M1001.45208,372.454475 C1015.875,375.484259 1027.1625,386.767593 1030.1934,401.185185 L1030.1934,372.454475 L1001.45208,372.454475 Z M1037.61389,372.454475 C1052.03681,375.484259 1063.32431,386.767593 1066.35521,401.185185 L1066.35521,372.454475 L1037.61389,372.454475 Z M1073.67118,372.454475 C1088.0941,375.484259 1099.3816,386.767593 1102.4125,401.185185 L1102.4125,372.454475 L1073.67118,372.454475 Z M1109.72847,372.454475 C1124.15139,375.484259 1135.43889,386.767593 1138.46979,401.185185 L1138.46979,372.454475 L1109.72847,372.454475 Z M1145.78576,372.454475 C1160.20868,375.484259 1171.49618,386.767593 1174.52708,401.185185 L1174.52708,372.454475 L1145.78576,372.454475 Z M1181.94757,372.454475 C1190.93576,374.335031 1198.66979,379.454321 1204,386.558642 L1204,372.454475 L1181.94757,372.454475 Z M0,336.306019 L0,339.335802 C10.0333333,344.350617 17.5583333,353.753395 19.9621528,365.036728 L19.9621528,336.306019 L0,336.306019 Z M27.278125,336.306019 C41.7010417,339.335802 52.9885417,350.619136 56.0194444,365.036728 L56.0194444,336.306019 L27.278125,336.306019 Z M63.3354167,336.306019 C77.7583333,339.335802 89.0458333,350.619136 92.0767361,365.036728 L92.0767361,336.306019 L63.3354167,336.306019 Z M99.3927083,336.306019 C113.815625,339.335802 125.103125,350.619136 128.134028,365.036728 L128.134028,336.306019 L99.3927083,336.306019 Z M135.554514,336.306019 C149.977431,339.335802 161.264931,350.619136 164.295833,365.036728 L164.295833,336.306019 L135.554514,336.306019 Z M171.611806,336.306019 C186.034722,339.335802 197.322222,350.619136 200.353125,365.036728 L200.353125,336.306019 L171.611806,336.306019 Z M207.669097,336.306019 C222.092014,339.335802 233.379514,350.619136 236.410417,365.036728 L236.410417,336.306019 L207.669097,336.306019 Z M243.726389,336.306019 C258.149306,339.335802 269.436806,350.619136 272.467708,365.036728 L272.467708,336.306019 L243.726389,336.306019 Z M279.888194,336.306019 C294.311111,339.335802 305.598611,350.619136 308.629514,365.036728 L308.629514,336.306019 L279.888194,336.306019 Z M315.945486,336.306019 C330.368403,339.335802 341.655903,350.619136 344.686806,365.036728 L344.686806,336.306019 L315.945486,336.306019 Z M352.002778,336.306019 C366.425694,339.335802 377.713194,350.619136 380.744097,365.036728 L380.744097,336.306019 L352.002778,336.306019 Z M388.060069,336.306019 C402.482986,339.335802 413.770486,350.619136 416.801389,365.036728 L416.801389,336.306019 L388.060069,336.306019 Z M424.221875,336.306019 C438.644792,339.335802 449.932292,350.619136 452.963194,365.036728 L452.963194,336.306019 L424.221875,336.306019 Z M460.279167,336.306019 C474.702083,339.335802 485.989583,350.619136 489.020486,365.036728 L489.020486,336.306019 L460.279167,336.306019 Z M496.336458,336.306019 C510.759375,339.335802 522.046875,350.619136 525.077778,365.036728 L525.077778,336.306019 L496.336458,336.306019 Z M532.39375,336.306019 C546.816667,339.335802 558.104167,350.619136 561.135069,365.036728 L561.135069,336.306019 L532.39375,336.306019 Z M568.555556,336.306019 C582.978472,339.335802 594.265972,350.619136 597.296875,365.036728 L597.296875,336.306019 L568.555556,336.306019 Z M604.612847,336.306019 C619.035764,339.335802 630.323264,350.619136 633.354167,365.036728 L633.354167,336.306019 L604.612847,336.306019 Z M640.670139,336.306019 C655.093056,339.335802 666.380556,350.619136 669.411458,365.036728 L669.411458,336.306019 L640.670139,336.306019 Z M676.727431,336.306019 C691.150347,339.335802 702.437847,350.619136 705.46875,365.036728 L705.46875,336.306019 L676.727431,336.306019 Z M712.889236,336.306019 C727.312153,339.335802 738.599653,350.619136 741.630556,365.036728 L741.630556,336.306019 L712.889236,336.306019 Z M748.946528,336.306019 C763.369444,339.335802 774.656944,350.619136 777.687847,365.036728 L777.687847,336.306019 L748.946528,336.306019 Z M785.003819,336.306019 C799.426736,339.335802 810.714236,350.619136 813.745139,365.036728 L813.745139,336.306019 L785.003819,336.306019 Z M821.061111,336.306019 C835.484028,339.335802 846.771528,350.619136 849.802431,365.036728 L849.802431,336.306019 L821.061111,336.306019 Z M857.222917,336.306019 C871.645833,339.335802 882.933333,350.619136 885.964236,365.036728 L885.964236,336.306019 L857.222917,336.306019 Z M893.280208,336.306019 C907.703125,339.335802 918.990625,350.619136 922.021528,365.036728 L922.021528,336.306019 L893.280208,336.306019 Z M929.3375,336.306019 C943.760417,339.335802 955.047917,350.619136 958.078819,365.036728 L958.078819,336.306019 L929.3375,336.306019 Z M965.394792,336.306019 C979.817708,339.335802 991.105208,350.619136 994.136111,365.036728 L994.136111,336.306019 L965.394792,336.306019 Z M1001.45208,336.306019 C1015.875,339.335802 1027.1625,350.619136 1030.1934,365.036728 L1030.1934,336.306019 L1001.45208,336.306019 Z M1037.61389,336.306019 C1052.03681,339.335802 1063.32431,350.619136 1066.35521,365.036728 L1066.35521,336.306019 L1037.61389,336.306019 Z M1073.67118,336.306019 C1088.0941,339.335802 1099.3816,350.619136 1102.4125,365.036728 L1102.4125,336.306019 L1073.67118,336.306019 Z M1109.72847,336.306019 C1124.15139,339.335802 1135.43889,350.619136 1138.46979,365.036728 L1138.46979,336.306019 L1109.72847,336.306019 Z M1145.78576,336.306019 C1160.20868,339.335802 1171.49618,350.619136 1174.52708,365.036728 L1174.52708,336.306019 L1145.78576,336.306019 Z M1181.94757,336.306019 C1190.93576,338.186574 1198.66979,343.305864 1204,350.410185 L1204,336.306019 L1181.94757,336.306019 Z M0,300.262037 L0,303.291821 C10.0333333,308.306636 17.5583333,317.709414 19.9621528,328.992747 L19.9621528,300.262037 L0,300.262037 Z M27.278125,300.262037 C41.7010417,303.291821 52.9885417,314.575154 56.0194444,328.992747 L56.0194444,300.262037 L27.278125,300.262037 Z M63.3354167,300.262037 C77.7583333,303.291821 89.0458333,314.575154 92.0767361,328.992747 L92.0767361,300.262037 L63.3354167,300.262037 Z M99.3927083,300.262037 C113.815625,303.291821 125.103125,314.575154 128.134028,328.992747 L128.134028,300.262037 L99.3927083,300.262037 Z M135.554514,300.262037 C149.977431,303.291821 161.264931,314.575154 164.295833,328.992747 L164.295833,300.262037 L135.554514,300.262037 Z M171.611806,300.262037 C186.034722,303.291821 197.322222,314.575154 200.353125,328.992747 L200.353125,300.262037 L171.611806,300.262037 Z M207.669097,300.262037 C222.092014,303.291821 233.379514,314.575154 236.410417,328.992747 L236.410417,300.262037 L207.669097,300.262037 Z M243.726389,300.262037 C258.149306,303.291821 269.436806,314.575154 272.467708,328.992747 L272.467708,300.262037 L243.726389,300.262037 Z M279.888194,300.262037 C294.311111,303.291821 305.598611,314.575154 308.629514,328.992747 L308.629514,300.262037 L279.888194,300.262037 Z M315.945486,300.262037 C330.368403,303.291821 341.655903,314.575154 344.686806,328.992747 L344.686806,300.262037 L315.945486,300.262037 Z M352.002778,300.262037 C366.425694,303.291821 377.713194,314.575154 380.744097,328.992747 L380.744097,300.262037 L352.002778,300.262037 Z M388.060069,300.262037 C402.482986,303.291821 413.770486,314.575154 416.801389,328.992747 L416.801389,300.262037 L388.060069,300.262037 Z M424.221875,300.262037 C438.644792,303.291821 449.932292,314.575154 452.963194,328.992747 L452.963194,300.262037 L424.221875,300.262037 Z M460.279167,300.262037 C474.702083,303.291821 485.989583,314.575154 489.020486,328.992747 L489.020486,300.262037 L460.279167,300.262037 Z M496.336458,300.262037 C510.759375,303.291821 522.046875,314.575154 525.077778,328.992747 L525.077778,300.262037 L496.336458,300.262037 Z M532.39375,300.262037 C546.816667,303.291821 558.104167,314.575154 561.135069,328.992747 L561.135069,300.262037 L532.39375,300.262037 Z M568.555556,300.262037 C582.978472,303.291821 594.265972,314.575154 597.296875,328.992747 L597.296875,300.262037 L568.555556,300.262037 Z M604.612847,300.262037 C619.035764,303.291821 630.323264,314.575154 633.354167,328.992747 L633.354167,300.262037 L604.612847,300.262037 Z M640.670139,300.262037 C655.093056,303.291821 666.380556,314.575154 669.411458,328.992747 L669.411458,300.262037 L640.670139,300.262037 Z M676.727431,300.262037 C691.150347,303.291821 702.437847,314.575154 705.46875,328.992747 L705.46875,300.262037 L676.727431,300.262037 Z M712.889236,300.262037 C727.312153,303.291821 738.599653,314.575154 741.630556,328.992747 L741.630556,300.262037 L712.889236,300.262037 Z M748.946528,300.262037 C763.369444,303.291821 774.656944,314.575154 777.687847,328.992747 L777.687847,300.262037 L748.946528,300.262037 Z M785.003819,300.262037 C799.426736,303.291821 810.714236,314.575154 813.745139,328.992747 L813.745139,300.262037 L785.003819,300.262037 Z M821.061111,300.262037 C835.484028,303.291821 846.771528,314.575154 849.802431,328.992747 L849.802431,300.262037 L821.061111,300.262037 Z M857.222917,300.262037 C871.645833,303.291821 882.933333,314.575154 885.964236,328.992747 L885.964236,300.262037 L857.222917,300.262037 Z M893.280208,300.262037 C907.703125,303.291821 918.990625,314.575154 922.021528,328.992747 L922.021528,300.262037 L893.280208,300.262037 Z M929.3375,300.262037 C943.760417,303.291821 955.047917,314.575154 958.078819,328.992747 L958.078819,300.262037 L929.3375,300.262037 Z M965.394792,300.262037 C979.817708,303.291821 991.105208,314.575154 994.136111,328.992747 L994.136111,300.262037 L965.394792,300.262037 Z M1001.45208,300.262037 C1015.875,303.291821 1027.1625,314.575154 1030.1934,328.992747 L1030.1934,300.262037 L1001.45208,300.262037 Z M1037.61389,300.262037 C1052.03681,303.291821 1063.32431,314.575154 1066.35521,328.992747 L1066.35521,300.262037 L1037.61389,300.262037 Z M1073.67118,300.262037 C1088.0941,303.291821 1099.3816,314.575154 1102.4125,328.992747 L1102.4125,300.262037 L1073.67118,300.262037 Z M1109.72847,300.262037 C1124.15139,303.291821 1135.43889,314.575154 1138.46979,328.992747 L1138.46979,300.262037 L1109.72847,300.262037 Z M1145.78576,300.262037 C1160.20868,303.291821 1171.49618,314.575154 1174.52708,328.992747 L1174.52708,300.262037 L1145.78576,300.262037 Z M1181.94757,300.262037 C1190.93576,302.142593 1198.66979,307.261883 1204,314.366204 L1204,300.262037 L1181.94757,300.262037 Z M0,264.218056 L0,267.24784 C10.0333333,272.262654 17.5583333,281.665432 19.9621528,292.948765 L19.9621528,264.218056 L0,264.218056 L0,264.218056 Z M27.278125,264.218056 C41.7010417,267.24784 52.9885417,278.531173 56.0194444,292.948765 L56.0194444,264.218056 L27.278125,264.218056 L27.278125,264.218056 Z M63.3354167,264.218056 C77.7583333,267.24784 89.0458333,278.531173 92.0767361,292.948765 L92.0767361,264.218056 L63.3354167,264.218056 L63.3354167,264.218056 Z M99.3927083,264.218056 C113.815625,267.24784 125.103125,278.531173 128.134028,292.948765 L128.134028,264.218056 L99.3927083,264.218056 L99.3927083,264.218056 Z M135.554514,264.218056 C149.977431,267.24784 161.264931,278.531173 164.295833,292.948765 L164.295833,264.218056 L135.554514,264.218056 L135.554514,264.218056 Z M171.611806,264.218056 C186.034722,267.24784 197.322222,278.531173 200.353125,292.948765 L200.353125,264.218056 L171.611806,264.218056 L171.611806,264.218056 Z M207.669097,264.218056 C222.092014,267.24784 233.379514,278.531173 236.410417,292.948765 L236.410417,264.218056 L207.669097,264.218056 L207.669097,264.218056 Z M243.726389,264.218056 C258.149306,267.24784 269.436806,278.531173 272.467708,292.948765 L272.467708,264.218056 L243.726389,264.218056 L243.726389,264.218056 Z M279.888194,264.218056 C294.311111,267.24784 305.598611,278.531173 308.629514,292.948765 L308.629514,264.218056 L279.888194,264.218056 L279.888194,264.218056 Z M315.945486,264.218056 C330.368403,267.24784 341.655903,278.531173 344.686806,292.948765 L344.686806,264.218056 L315.945486,264.218056 L315.945486,264.218056 Z M352.002778,264.218056 C366.425694,267.24784 377.713194,278.531173 380.744097,292.948765 L380.744097,264.218056 L352.002778,264.218056 L352.002778,264.218056 Z M388.060069,264.218056 C402.482986,267.24784 413.770486,278.531173 416.801389,292.948765 L416.801389,264.218056 L388.060069,264.218056 L388.060069,264.218056 Z M424.221875,264.218056 C438.644792,267.24784 449.932292,278.531173 452.963194,292.948765 L452.963194,264.218056 L424.221875,264.218056 L424.221875,264.218056 Z M460.279167,264.218056 C474.702083,267.24784 485.989583,278.531173 489.020486,292.948765 L489.020486,264.218056 L460.279167,264.218056 L460.279167,264.218056 Z M496.336458,264.218056 C510.759375,267.24784 522.046875,278.531173 525.077778,292.948765 L525.077778,264.218056 L496.336458,264.218056 L496.336458,264.218056 Z M532.39375,264.218056 C546.816667,267.24784 558.104167,278.531173 561.135069,292.948765 L561.135069,264.218056 L532.39375,264.218056 L532.39375,264.218056 Z M568.555556,264.218056 C582.978472,267.24784 594.265972,278.531173 597.296875,292.948765 L597.296875,264.218056 L568.555556,264.218056 L568.555556,264.218056 Z M604.612847,264.218056 C619.035764,267.24784 630.323264,278.531173 633.354167,292.948765 L633.354167,264.218056 L604.612847,264.218056 L604.612847,264.218056 Z M640.670139,264.218056 C655.093056,267.24784 666.380556,278.531173 669.411458,292.948765 L669.411458,264.218056 L640.670139,264.218056 L640.670139,264.218056 Z M676.727431,264.218056 C691.150347,267.24784 702.437847,278.531173 705.46875,292.948765 L705.46875,264.218056 L676.727431,264.218056 L676.727431,264.218056 Z M712.889236,264.218056 C727.312153,267.24784 738.599653,278.531173 741.630556,292.948765 L741.630556,264.218056 L712.889236,264.218056 L712.889236,264.218056 Z M748.946528,264.218056 C763.369444,267.24784 774.656944,278.531173 777.687847,292.948765 L777.687847,264.218056 L748.946528,264.218056 L748.946528,264.218056 Z M785.003819,264.218056 C799.426736,267.24784 810.714236,278.531173 813.745139,292.948765 L813.745139,264.218056 L785.003819,264.218056 L785.003819,264.218056 Z M821.061111,264.218056 C835.484028,267.24784 846.771528,278.531173 849.802431,292.948765 L849.802431,264.218056 L821.061111,264.218056 L821.061111,264.218056 Z M857.222917,264.218056 C871.645833,267.24784 882.933333,278.531173 885.964236,292.948765 L885.964236,264.218056 L857.222917,264.218056 L857.222917,264.218056 Z M893.280208,264.218056 C907.703125,267.24784 918.990625,278.531173 922.021528,292.948765 L922.021528,264.218056 L893.280208,264.218056 L893.280208,264.218056 Z M929.3375,264.218056 C943.760417,267.24784 955.047917,278.531173 958.078819,292.948765 L958.078819,264.218056 L929.3375,264.218056 L929.3375,264.218056 Z M965.394792,264.218056 C979.817708,267.24784 991.105208,278.531173 994.136111,292.948765 L994.136111,264.218056 L965.394792,264.218056 L965.394792,264.218056 Z M1001.45208,264.218056 C1015.875,267.24784 1027.1625,278.531173 1030.1934,292.948765 L1030.1934,264.218056 L1001.45208,264.218056 L1001.45208,264.218056 Z M1037.61389,264.218056 C1052.03681,267.24784 1063.32431,278.531173 1066.35521,292.948765 L1066.35521,264.218056 L1037.61389,264.218056 L1037.61389,264.218056 Z M1073.67118,264.218056 C1088.0941,267.24784 1099.3816,278.531173 1102.4125,292.948765 L1102.4125,264.218056 L1073.67118,264.218056 L1073.67118,264.218056 Z M1109.72847,264.218056 C1124.15139,267.24784 1135.43889,278.531173 1138.46979,292.948765 L1138.46979,264.218056 L1109.72847,264.218056 L1109.72847,264.218056 Z M1145.78576,264.218056 C1160.20868,267.24784 1171.49618,278.531173 1174.52708,292.948765 L1174.52708,264.218056 L1145.78576,264.218056 L1145.78576,264.218056 Z M1181.94757,264.218056 C1190.93576,266.098611 1198.66979,271.217901 1204,278.322222 L1204,264.218056 L1181.94757,264.218056 L1181.94757,264.218056 Z M0,228.174074 L0,231.203858 C10.0333333,236.218673 17.5583333,245.621451 19.9621528,256.904784 L19.9621528,228.174074 L0,228.174074 Z M27.278125,228.174074 C41.7010417,231.203858 52.9885417,242.487191 56.0194444,256.904784 L56.0194444,228.174074 L27.278125,228.174074 Z M63.3354167,228.174074 C77.7583333,231.203858 89.0458333,242.487191 92.0767361,256.904784 L92.0767361,228.174074 L63.3354167,228.174074 Z M99.3927083,228.174074 C113.815625,231.203858 125.103125,242.487191 128.134028,256.904784 L128.134028,228.174074 L99.3927083,228.174074 Z M135.554514,228.174074 C149.977431,231.203858 161.264931,242.487191 164.295833,256.904784 L164.295833,228.174074 L135.554514,228.174074 Z M171.611806,228.174074 C186.034722,231.203858 197.322222,242.487191 200.353125,256.904784 L200.353125,228.174074 L171.611806,228.174074 Z M207.669097,228.174074 C222.092014,231.203858 233.379514,242.487191 236.410417,256.904784 L236.410417,228.174074 L207.669097,228.174074 Z M243.726389,228.174074 C258.149306,231.203858 269.436806,242.487191 272.467708,256.904784 L272.467708,228.174074 L243.726389,228.174074 Z M279.888194,228.174074 C294.311111,231.203858 305.598611,242.487191 308.629514,256.904784 L308.629514,228.174074 L279.888194,228.174074 Z M315.945486,228.174074 C330.368403,231.203858 341.655903,242.487191 344.686806,256.904784 L344.686806,228.174074 L315.945486,228.174074 Z M352.002778,228.174074 C366.425694,231.203858 377.713194,242.487191 380.744097,256.904784 L380.744097,228.174074 L352.002778,228.174074 Z M388.060069,228.174074 C402.482986,231.203858 413.770486,242.487191 416.801389,256.904784 L416.801389,228.174074 L388.060069,228.174074 Z M424.221875,228.174074 C438.644792,231.203858 449.932292,242.487191 452.963194,256.904784 L452.963194,228.174074 L424.221875,228.174074 Z M460.279167,228.174074 C474.702083,231.203858 485.989583,242.487191 489.020486,256.904784 L489.020486,228.174074 L460.279167,228.174074 Z M496.336458,228.174074 C510.759375,231.203858 522.046875,242.487191 525.077778,256.904784 L525.077778,228.174074 L496.336458,228.174074 Z M532.39375,228.174074 C546.816667,231.203858 558.104167,242.487191 561.135069,256.904784 L561.135069,228.174074 L532.39375,228.174074 Z M568.555556,228.174074 C582.978472,231.203858 594.265972,242.487191 597.296875,256.904784 L597.296875,228.174074 L568.555556,228.174074 Z M604.612847,228.174074 C619.035764,231.203858 630.323264,242.487191 633.354167,256.904784 L633.354167,228.174074 L604.612847,228.174074 Z M640.670139,228.174074 C655.093056,231.203858 666.380556,242.487191 669.411458,256.904784 L669.411458,228.174074 L640.670139,228.174074 Z M676.727431,228.174074 C691.150347,231.203858 702.437847,242.487191 705.46875,256.904784 L705.46875,228.174074 L676.727431,228.174074 Z M712.889236,228.174074 C727.312153,231.203858 738.599653,242.487191 741.630556,256.904784 L741.630556,228.174074 L712.889236,228.174074 Z M748.946528,228.174074 C763.369444,231.203858 774.656944,242.487191 777.687847,256.904784 L777.687847,228.174074 L748.946528,228.174074 Z M785.003819,228.174074 C799.426736,231.203858 810.714236,242.487191 813.745139,256.904784 L813.745139,228.174074 L785.003819,228.174074 Z M821.061111,228.174074 C835.484028,231.203858 846.771528,242.487191 849.802431,256.904784 L849.802431,228.174074 L821.061111,228.174074 Z M857.222917,228.174074 C871.645833,231.203858 882.933333,242.487191 885.964236,256.904784 L885.964236,228.174074 L857.222917,228.174074 Z M893.280208,228.174074 C907.703125,231.203858 918.990625,242.487191 922.021528,256.904784 L922.021528,228.174074 L893.280208,228.174074 Z M929.3375,228.174074 C943.760417,231.203858 955.047917,242.487191 958.078819,256.904784 L958.078819,228.174074 L929.3375,228.174074 Z M965.394792,228.174074 C979.817708,231.203858 991.105208,242.487191 994.136111,256.904784 L994.136111,228.174074 L965.394792,228.174074 Z M1001.45208,228.174074 C1015.875,231.203858 1027.1625,242.487191 1030.1934,256.904784 L1030.1934,228.174074 L1001.45208,228.174074 Z M1037.61389,228.174074 C1052.03681,231.203858 1063.32431,242.487191 1066.35521,256.904784 L1066.35521,228.174074 L1037.61389,228.174074 Z M1073.67118,228.174074 C1088.0941,231.203858 1099.3816,242.487191 1102.4125,256.904784 L1102.4125,228.174074 L1073.67118,228.174074 Z M1109.72847,228.174074 C1124.15139,231.203858 1135.43889,242.487191 1138.46979,256.904784 L1138.46979,228.174074 L1109.72847,228.174074 Z M1145.78576,228.174074 C1160.20868,231.203858 1171.49618,242.487191 1174.52708,256.904784 L1174.52708,228.174074 L1145.78576,228.174074 Z M1181.94757,228.174074 C1190.93576,230.05463 1198.66979,235.17392 1204,242.278241 L1204,228.174074 L1181.94757,228.174074 Z M0,192.130093 L0,195.159877 C10.0333333,200.174691 17.5583333,209.577469 19.9621528,220.860802 L19.9621528,192.130093 L0,192.130093 Z M27.278125,192.130093 C41.7010417,195.159877 52.9885417,206.44321 56.0194444,220.860802 L56.0194444,192.130093 L27.278125,192.130093 Z M63.3354167,192.130093 C77.7583333,195.159877 89.0458333,206.44321 92.0767361,220.860802 L92.0767361,192.130093 L63.3354167,192.130093 Z M99.3927083,192.130093 C113.815625,195.159877 125.103125,206.44321 128.134028,220.860802 L128.134028,192.130093 L99.3927083,192.130093 Z M135.554514,192.130093 C149.977431,195.159877 161.264931,206.44321 164.295833,220.860802 L164.295833,192.130093 L135.554514,192.130093 Z M171.611806,192.130093 C186.034722,195.159877 197.322222,206.44321 200.353125,220.860802 L200.353125,192.130093 L171.611806,192.130093 Z M207.669097,192.130093 C222.092014,195.159877 233.379514,206.44321 236.410417,220.860802 L236.410417,192.130093 L207.669097,192.130093 Z M243.726389,192.130093 C258.149306,195.159877 269.436806,206.44321 272.467708,220.860802 L272.467708,192.130093 L243.726389,192.130093 Z M279.888194,192.130093 C294.311111,195.159877 305.598611,206.44321 308.629514,220.860802 L308.629514,192.130093 L279.888194,192.130093 Z M315.945486,192.130093 C330.368403,195.159877 341.655903,206.44321 344.686806,220.860802 L344.686806,192.130093 L315.945486,192.130093 Z M352.002778,192.130093 C366.425694,195.159877 377.713194,206.44321 380.744097,220.860802 L380.744097,192.130093 L352.002778,192.130093 Z M388.060069,192.130093 C402.482986,195.159877 413.770486,206.44321 416.801389,220.860802 L416.801389,192.130093 L388.060069,192.130093 Z M424.221875,192.130093 C438.644792,195.159877 449.932292,206.44321 452.963194,220.860802 L452.963194,192.130093 L424.221875,192.130093 Z M460.279167,192.130093 C474.702083,195.159877 485.989583,206.44321 489.020486,220.860802 L489.020486,192.130093 L460.279167,192.130093 Z M496.336458,192.130093 C510.759375,195.159877 522.046875,206.44321 525.077778,220.860802 L525.077778,192.130093 L496.336458,192.130093 Z M532.39375,192.130093 C546.816667,195.159877 558.104167,206.44321 561.135069,220.860802 L561.135069,192.130093 L532.39375,192.130093 Z M568.555556,192.130093 C582.978472,195.159877 594.265972,206.44321 597.296875,220.860802 L597.296875,192.130093 L568.555556,192.130093 Z M604.612847,192.130093 C619.035764,195.159877 630.323264,206.44321 633.354167,220.860802 L633.354167,192.130093 L604.612847,192.130093 Z M640.670139,192.130093 C655.093056,195.159877 666.380556,206.44321 669.411458,220.860802 L669.411458,192.130093 L640.670139,192.130093 Z M676.727431,192.130093 C691.150347,195.159877 702.437847,206.44321 705.46875,220.860802 L705.46875,192.130093 L676.727431,192.130093 Z M712.889236,192.130093 C727.312153,195.159877 738.599653,206.44321 741.630556,220.860802 L741.630556,192.130093 L712.889236,192.130093 Z M748.946528,192.130093 C763.369444,195.159877 774.656944,206.44321 777.687847,220.860802 L777.687847,192.130093 L748.946528,192.130093 Z M785.003819,192.130093 C799.426736,195.159877 810.714236,206.44321 813.745139,220.860802 L813.745139,192.130093 L785.003819,192.130093 Z M821.061111,192.130093 C835.484028,195.159877 846.771528,206.44321 849.802431,220.860802 L849.802431,192.130093 L821.061111,192.130093 Z M857.222917,192.130093 C871.645833,195.159877 882.933333,206.44321 885.964236,220.860802 L885.964236,192.130093 L857.222917,192.130093 Z M893.280208,192.130093 C907.703125,195.159877 918.990625,206.44321 922.021528,220.860802 L922.021528,192.130093 L893.280208,192.130093 Z M929.3375,192.130093 C943.760417,195.159877 955.047917,206.44321 958.078819,220.860802 L958.078819,192.130093 L929.3375,192.130093 Z M965.394792,192.130093 C979.817708,195.159877 991.105208,206.44321 994.136111,220.860802 L994.136111,192.130093 L965.394792,192.130093 Z M1001.45208,192.130093 C1015.875,195.159877 1027.1625,206.44321 1030.1934,220.860802 L1030.1934,192.130093 L1001.45208,192.130093 Z M1037.61389,192.130093 C1052.03681,195.159877 1063.32431,206.44321 1066.35521,220.860802 L1066.35521,192.130093 L1037.61389,192.130093 Z M1073.67118,192.130093 C1088.0941,195.159877 1099.3816,206.44321 1102.4125,220.860802 L1102.4125,192.130093 L1073.67118,192.130093 Z M1109.72847,192.130093 C1124.15139,195.159877 1135.43889,206.44321 1138.46979,220.860802 L1138.46979,192.130093 L1109.72847,192.130093 Z M1145.78576,192.130093 C1160.20868,195.159877 1171.49618,206.44321 1174.52708,220.860802 L1174.52708,192.130093 L1145.78576,192.130093 Z M1181.94757,192.130093 C1190.93576,194.010648 1198.66979,199.129938 1204,206.234259 L1204,192.130093 L1181.94757,192.130093 Z M0,155.981636 L0,159.01142 C10.0333333,164.026235 17.5583333,173.429012 19.9621528,184.712346 L19.9621528,155.981636 L0,155.981636 Z M27.278125,155.981636 C41.7010417,159.01142 52.9885417,170.294753 56.0194444,184.712346 L56.0194444,155.981636 L27.278125,155.981636 Z M63.3354167,155.981636 C77.7583333,159.01142 89.0458333,170.294753 92.0767361,184.712346 L92.0767361,155.981636 L63.3354167,155.981636 Z M99.3927083,155.981636 C113.815625,159.01142 125.103125,170.294753 128.134028,184.712346 L128.134028,155.981636 L99.3927083,155.981636 Z M135.554514,155.981636 C149.977431,159.01142 161.264931,170.294753 164.295833,184.712346 L164.295833,155.981636 L135.554514,155.981636 Z M171.611806,155.981636 C186.034722,159.01142 197.322222,170.294753 200.353125,184.712346 L200.353125,155.981636 L171.611806,155.981636 Z M207.669097,155.981636 C222.092014,159.01142 233.379514,170.294753 236.410417,184.712346 L236.410417,155.981636 L207.669097,155.981636 Z M243.726389,155.981636 C258.149306,159.01142 269.436806,170.294753 272.467708,184.712346 L272.467708,155.981636 L243.726389,155.981636 Z M279.888194,155.981636 C294.311111,159.01142 305.598611,170.294753 308.629514,184.712346 L308.629514,155.981636 L279.888194,155.981636 Z M315.945486,155.981636 C330.368403,159.01142 341.655903,170.294753 344.686806,184.712346 L344.686806,155.981636 L315.945486,155.981636 Z M352.002778,155.981636 C366.425694,159.01142 377.713194,170.294753 380.744097,184.712346 L380.744097,155.981636 L352.002778,155.981636 Z M388.060069,155.981636 C402.482986,159.01142 413.770486,170.294753 416.801389,184.712346 L416.801389,155.981636 L388.060069,155.981636 Z M424.221875,155.981636 C438.644792,159.01142 449.932292,170.294753 452.963194,184.712346 L452.963194,155.981636 L424.221875,155.981636 Z M460.279167,155.981636 C474.702083,159.01142 485.989583,170.294753 489.020486,184.712346 L489.020486,155.981636 L460.279167,155.981636 Z M496.336458,155.981636 C510.759375,159.01142 522.046875,170.294753 525.077778,184.712346 L525.077778,155.981636 L496.336458,155.981636 Z M532.39375,155.981636 C546.816667,159.01142 558.104167,170.294753 561.135069,184.712346 L561.135069,155.981636 L532.39375,155.981636 Z M568.555556,155.981636 C582.978472,159.01142 594.265972,170.294753 597.296875,184.712346 L597.296875,155.981636 L568.555556,155.981636 Z M604.612847,155.981636 C619.035764,159.01142 630.323264,170.294753 633.354167,184.712346 L633.354167,155.981636 L604.612847,155.981636 Z M640.670139,155.981636 C655.093056,159.01142 666.380556,170.294753 669.411458,184.712346 L669.411458,155.981636 L640.670139,155.981636 Z M676.727431,155.981636 C691.150347,159.01142 702.437847,170.294753 705.46875,184.712346 L705.46875,155.981636 L676.727431,155.981636 Z M712.889236,155.981636 C727.312153,159.01142 738.599653,170.294753 741.630556,184.712346 L741.630556,155.981636 L712.889236,155.981636 Z M748.946528,155.981636 C763.369444,159.01142 774.656944,170.294753 777.687847,184.712346 L777.687847,155.981636 L748.946528,155.981636 Z M785.003819,155.981636 C799.426736,159.01142 810.714236,170.294753 813.745139,184.712346 L813.745139,155.981636 L785.003819,155.981636 Z M821.061111,155.981636 C835.484028,159.01142 846.771528,170.294753 849.802431,184.712346 L849.802431,155.981636 L821.061111,155.981636 Z M857.222917,155.981636 C871.645833,159.01142 882.933333,170.294753 885.964236,184.712346 L885.964236,155.981636 L857.222917,155.981636 Z M893.280208,155.981636 C907.703125,159.01142 918.990625,170.294753 922.021528,184.712346 L922.021528,155.981636 L893.280208,155.981636 Z M929.3375,155.981636 C943.760417,159.01142 955.047917,170.294753 958.078819,184.712346 L958.078819,155.981636 L929.3375,155.981636 Z M965.394792,155.981636 C979.817708,159.01142 991.105208,170.294753 994.136111,184.712346 L994.136111,155.981636 L965.394792,155.981636 Z M1001.45208,155.981636 C1015.875,159.01142 1027.1625,170.294753 1030.1934,184.712346 L1030.1934,155.981636 L1001.45208,155.981636 Z M1037.61389,155.981636 C1052.03681,159.01142 1063.32431,170.294753 1066.35521,184.712346 L1066.35521,155.981636 L1037.61389,155.981636 Z M1073.67118,155.981636 C1088.0941,159.01142 1099.3816,170.294753 1102.4125,184.712346 L1102.4125,155.981636 L1073.67118,155.981636 Z M1109.72847,155.981636 C1124.15139,159.01142 1135.43889,170.294753 1138.46979,184.712346 L1138.46979,155.981636 L1109.72847,155.981636 Z M1145.78576,155.981636 C1160.20868,159.01142 1171.49618,170.294753 1174.52708,184.712346 L1174.52708,155.981636 L1145.78576,155.981636 Z M1181.94757,155.981636 C1190.93576,157.862191 1198.66979,162.981481 1204,170.085802 L1204,155.981636 L1181.94757,155.981636 Z M0,119.937654 L0,122.967438 C10.0333333,127.982253 17.5583333,137.385031 19.9621528,148.668364 L19.9621528,119.937654 L0,119.937654 L0,119.937654 Z M27.278125,119.937654 C41.7010417,122.967438 52.9885417,134.250772 56.0194444,148.668364 L56.0194444,119.937654 L27.278125,119.937654 L27.278125,119.937654 Z M63.3354167,119.937654 C77.7583333,122.967438 89.0458333,134.250772 92.0767361,148.668364 L92.0767361,119.937654 L63.3354167,119.937654 L63.3354167,119.937654 Z M99.3927083,119.937654 C113.815625,122.967438 125.103125,134.250772 128.134028,148.668364 L128.134028,119.937654 L99.3927083,119.937654 L99.3927083,119.937654 Z M135.554514,119.937654 C149.977431,122.967438 161.264931,134.250772 164.295833,148.668364 L164.295833,119.937654 L135.554514,119.937654 L135.554514,119.937654 Z M171.611806,119.937654 C186.034722,122.967438 197.322222,134.250772 200.353125,148.668364 L200.353125,119.937654 L171.611806,119.937654 L171.611806,119.937654 Z M207.669097,119.937654 C222.092014,122.967438 233.379514,134.250772 236.410417,148.668364 L236.410417,119.937654 L207.669097,119.937654 L207.669097,119.937654 Z M243.726389,119.937654 C258.149306,122.967438 269.436806,134.250772 272.467708,148.668364 L272.467708,119.937654 L243.726389,119.937654 L243.726389,119.937654 Z M279.888194,119.937654 C294.311111,122.967438 305.598611,134.250772 308.629514,148.668364 L308.629514,119.937654 L279.888194,119.937654 L279.888194,119.937654 Z M315.945486,119.937654 C330.368403,122.967438 341.655903,134.250772 344.686806,148.668364 L344.686806,119.937654 L315.945486,119.937654 L315.945486,119.937654 Z M352.002778,119.937654 C366.425694,122.967438 377.713194,134.250772 380.744097,148.668364 L380.744097,119.937654 L352.002778,119.937654 L352.002778,119.937654 Z M388.060069,119.937654 C402.482986,122.967438 413.770486,134.250772 416.801389,148.668364 L416.801389,119.937654 L388.060069,119.937654 L388.060069,119.937654 Z M424.221875,119.937654 C438.644792,122.967438 449.932292,134.250772 452.963194,148.668364 L452.963194,119.937654 L424.221875,119.937654 L424.221875,119.937654 Z M460.279167,119.937654 C474.702083,122.967438 485.989583,134.250772 489.020486,148.668364 L489.020486,119.937654 L460.279167,119.937654 L460.279167,119.937654 Z M496.336458,119.937654 C510.759375,122.967438 522.046875,134.250772 525.077778,148.668364 L525.077778,119.937654 L496.336458,119.937654 L496.336458,119.937654 Z M532.39375,119.937654 C546.816667,122.967438 558.104167,134.250772 561.135069,148.668364 L561.135069,119.937654 L532.39375,119.937654 L532.39375,119.937654 Z M568.555556,119.937654 C582.978472,122.967438 594.265972,134.250772 597.296875,148.668364 L597.296875,119.937654 L568.555556,119.937654 L568.555556,119.937654 Z M604.612847,119.937654 C619.035764,122.967438 630.323264,134.250772 633.354167,148.668364 L633.354167,119.937654 L604.612847,119.937654 L604.612847,119.937654 Z M640.670139,119.937654 C655.093056,122.967438 666.380556,134.250772 669.411458,148.668364 L669.411458,119.937654 L640.670139,119.937654 L640.670139,119.937654 Z M676.727431,119.937654 C691.150347,122.967438 702.437847,134.250772 705.46875,148.668364 L705.46875,119.937654 L676.727431,119.937654 L676.727431,119.937654 Z M712.889236,119.937654 C727.312153,122.967438 738.599653,134.250772 741.630556,148.668364 L741.630556,119.937654 L712.889236,119.937654 L712.889236,119.937654 Z M748.946528,119.937654 C763.369444,122.967438 774.656944,134.250772 777.687847,148.668364 L777.687847,119.937654 L748.946528,119.937654 L748.946528,119.937654 Z M785.003819,119.937654 C799.426736,122.967438 810.714236,134.250772 813.745139,148.668364 L813.745139,119.937654 L785.003819,119.937654 L785.003819,119.937654 Z M821.061111,119.937654 C835.484028,122.967438 846.771528,134.250772 849.802431,148.668364 L849.802431,119.937654 L821.061111,119.937654 L821.061111,119.937654 Z M857.222917,119.937654 C871.645833,122.967438 882.933333,134.250772 885.964236,148.668364 L885.964236,119.937654 L857.222917,119.937654 L857.222917,119.937654 Z M893.280208,119.937654 C907.703125,122.967438 918.990625,134.250772 922.021528,148.668364 L922.021528,119.937654 L893.280208,119.937654 L893.280208,119.937654 Z M929.3375,119.937654 C943.760417,122.967438 955.047917,134.250772 958.078819,148.668364 L958.078819,119.937654 L929.3375,119.937654 L929.3375,119.937654 Z M965.394792,119.937654 C979.817708,122.967438 991.105208,134.250772 994.136111,148.668364 L994.136111,119.937654 L965.394792,119.937654 L965.394792,119.937654 Z M1001.45208,119.937654 C1015.875,122.967438 1027.1625,134.250772 1030.1934,148.668364 L1030.1934,119.937654 L1001.45208,119.937654 L1001.45208,119.937654 Z M1037.61389,119.937654 C1052.03681,122.967438 1063.32431,134.250772 1066.35521,148.668364 L1066.35521,119.937654 L1037.61389,119.937654 L1037.61389,119.937654 Z M1073.67118,119.937654 C1088.0941,122.967438 1099.3816,134.250772 1102.4125,148.668364 L1102.4125,119.937654 L1073.67118,119.937654 L1073.67118,119.937654 Z M1109.72847,119.937654 C1124.15139,122.967438 1135.43889,134.250772 1138.46979,148.668364 L1138.46979,119.937654 L1109.72847,119.937654 L1109.72847,119.937654 Z M1145.78576,119.937654 C1160.20868,122.967438 1171.49618,134.250772 1174.52708,148.668364 L1174.52708,119.937654 L1145.78576,119.937654 L1145.78576,119.937654 Z M1181.94757,119.937654 C1190.93576,121.81821 1198.66979,126.9375 1204,134.041821 L1204,119.937654 L1181.94757,119.937654 L1181.94757,119.937654 Z M0,83.8936728 L0,86.9234568 C10.0333333,91.9382716 17.5583333,101.341049 19.9621528,112.624383 L19.9621528,83.8936728 L0,83.8936728 Z M27.278125,83.8936728 C41.7010417,86.9234568 52.9885417,98.2067901 56.0194444,112.624383 L56.0194444,83.8936728 L27.278125,83.8936728 Z M63.3354167,83.8936728 C77.7583333,86.9234568 89.0458333,98.2067901 92.0767361,112.624383 L92.0767361,83.8936728 L63.3354167,83.8936728 Z M99.3927083,83.8936728 C113.815625,86.9234568 125.103125,98.2067901 128.134028,112.624383 L128.134028,83.8936728 L99.3927083,83.8936728 Z M135.554514,83.8936728 C149.977431,86.9234568 161.264931,98.2067901 164.295833,112.624383 L164.295833,83.8936728 L135.554514,83.8936728 Z M171.611806,83.8936728 C186.034722,86.9234568 197.322222,98.2067901 200.353125,112.624383 L200.353125,83.8936728 L171.611806,83.8936728 Z M207.669097,83.8936728 C222.092014,86.9234568 233.379514,98.2067901 236.410417,112.624383 L236.410417,83.8936728 L207.669097,83.8936728 Z M243.726389,83.8936728 C258.149306,86.9234568 269.436806,98.2067901 272.467708,112.624383 L272.467708,83.8936728 L243.726389,83.8936728 Z M279.888194,83.8936728 C294.311111,86.9234568 305.598611,98.2067901 308.629514,112.624383 L308.629514,83.8936728 L279.888194,83.8936728 Z M315.945486,83.8936728 C330.368403,86.9234568 341.655903,98.2067901 344.686806,112.624383 L344.686806,83.8936728 L315.945486,83.8936728 Z M352.002778,83.8936728 C366.425694,86.9234568 377.713194,98.2067901 380.744097,112.624383 L380.744097,83.8936728 L352.002778,83.8936728 Z M388.060069,83.8936728 C402.482986,86.9234568 413.770486,98.2067901 416.801389,112.624383 L416.801389,83.8936728 L388.060069,83.8936728 Z M424.221875,83.8936728 C438.644792,86.9234568 449.932292,98.2067901 452.963194,112.624383 L452.963194,83.8936728 L424.221875,83.8936728 Z M460.279167,83.8936728 C474.702083,86.9234568 485.989583,98.2067901 489.020486,112.624383 L489.020486,83.8936728 L460.279167,83.8936728 Z M496.336458,83.8936728 C510.759375,86.9234568 522.046875,98.2067901 525.077778,112.624383 L525.077778,83.8936728 L496.336458,83.8936728 Z M532.39375,83.8936728 C546.816667,86.9234568 558.104167,98.2067901 561.135069,112.624383 L561.135069,83.8936728 L532.39375,83.8936728 Z M568.555556,83.8936728 C582.978472,86.9234568 594.265972,98.2067901 597.296875,112.624383 L597.296875,83.8936728 L568.555556,83.8936728 Z M604.612847,83.8936728 C619.035764,86.9234568 630.323264,98.2067901 633.354167,112.624383 L633.354167,83.8936728 L604.612847,83.8936728 Z M640.670139,83.8936728 C655.093056,86.9234568 666.380556,98.2067901 669.411458,112.624383 L669.411458,83.8936728 L640.670139,83.8936728 Z M676.727431,83.8936728 C691.150347,86.9234568 702.437847,98.2067901 705.46875,112.624383 L705.46875,83.8936728 L676.727431,83.8936728 Z M712.889236,83.8936728 C727.312153,86.9234568 738.599653,98.2067901 741.630556,112.624383 L741.630556,83.8936728 L712.889236,83.8936728 Z M748.946528,83.8936728 C763.369444,86.9234568 774.656944,98.2067901 777.687847,112.624383 L777.687847,83.8936728 L748.946528,83.8936728 Z M785.003819,83.8936728 C799.426736,86.9234568 810.714236,98.2067901 813.745139,112.624383 L813.745139,83.8936728 L785.003819,83.8936728 Z M821.061111,83.8936728 C835.484028,86.9234568 846.771528,98.2067901 849.802431,112.624383 L849.802431,83.8936728 L821.061111,83.8936728 Z M857.222917,83.8936728 C871.645833,86.9234568 882.933333,98.2067901 885.964236,112.624383 L885.964236,83.8936728 L857.222917,83.8936728 Z M893.280208,83.8936728 C907.703125,86.9234568 918.990625,98.2067901 922.021528,112.624383 L922.021528,83.8936728 L893.280208,83.8936728 Z M929.3375,83.8936728 C943.760417,86.9234568 955.047917,98.2067901 958.078819,112.624383 L958.078819,83.8936728 L929.3375,83.8936728 Z M965.394792,83.8936728 C979.817708,86.9234568 991.105208,98.2067901 994.136111,112.624383 L994.136111,83.8936728 L965.394792,83.8936728 Z M1001.45208,83.8936728 C1015.875,86.9234568 1027.1625,98.2067901 1030.1934,112.624383 L1030.1934,83.8936728 L1001.45208,83.8936728 Z M1037.61389,83.8936728 C1052.03681,86.9234568 1063.32431,98.2067901 1066.35521,112.624383 L1066.35521,83.8936728 L1037.61389,83.8936728 Z M1073.67118,83.8936728 C1088.0941,86.9234568 1099.3816,98.2067901 1102.4125,112.624383 L1102.4125,83.8936728 L1073.67118,83.8936728 Z M1109.72847,83.8936728 C1124.15139,86.9234568 1135.43889,98.2067901 1138.46979,112.624383 L1138.46979,83.8936728 L1109.72847,83.8936728 Z M1145.78576,83.8936728 C1160.20868,86.9234568 1171.49618,98.2067901 1174.52708,112.624383 L1174.52708,83.8936728 L1145.78576,83.8936728 Z M1181.94757,83.8936728 C1190.93576,85.7742284 1198.66979,90.8935185 1204,97.9978395 L1204,83.8936728 L1181.94757,83.8936728 Z M0,47.8496914 L0,50.8794753 C10.0333333,55.8942901 17.5583333,65.2970679 19.9621528,76.5804012 L19.9621528,47.8496914 L0,47.8496914 Z M27.278125,47.8496914 C41.7010417,50.8794753 52.9885417,62.1628086 56.0194444,76.5804012 L56.0194444,47.8496914 L27.278125,47.8496914 Z M63.3354167,47.8496914 C77.7583333,50.8794753 89.0458333,62.1628086 92.0767361,76.5804012 L92.0767361,47.8496914 L63.3354167,47.8496914 Z M99.3927083,47.8496914 C113.815625,50.8794753 125.103125,62.1628086 128.134028,76.5804012 L128.134028,47.8496914 L99.3927083,47.8496914 Z M135.554514,47.8496914 C149.977431,50.8794753 161.264931,62.1628086 164.295833,76.5804012 L164.295833,47.8496914 L135.554514,47.8496914 Z M171.611806,47.8496914 C186.034722,50.8794753 197.322222,62.1628086 200.353125,76.5804012 L200.353125,47.8496914 L171.611806,47.8496914 Z M207.669097,47.8496914 C222.092014,50.8794753 233.379514,62.1628086 236.410417,76.5804012 L236.410417,47.8496914 L207.669097,47.8496914 Z M243.726389,47.8496914 C258.149306,50.8794753 269.436806,62.1628086 272.467708,76.5804012 L272.467708,47.8496914 L243.726389,47.8496914 Z M279.888194,47.8496914 C294.311111,50.8794753 305.598611,62.1628086 308.629514,76.5804012 L308.629514,47.8496914 L279.888194,47.8496914 Z M315.945486,47.8496914 C330.368403,50.8794753 341.655903,62.1628086 344.686806,76.5804012 L344.686806,47.8496914 L315.945486,47.8496914 Z M352.002778,47.8496914 C366.425694,50.8794753 377.713194,62.1628086 380.744097,76.5804012 L380.744097,47.8496914 L352.002778,47.8496914 Z M388.060069,47.8496914 C402.482986,50.8794753 413.770486,62.1628086 416.801389,76.5804012 L416.801389,47.8496914 L388.060069,47.8496914 Z M424.221875,47.8496914 C438.644792,50.8794753 449.932292,62.1628086 452.963194,76.5804012 L452.963194,47.8496914 L424.221875,47.8496914 Z M460.279167,47.8496914 C474.702083,50.8794753 485.989583,62.1628086 489.020486,76.5804012 L489.020486,47.8496914 L460.279167,47.8496914 Z M496.336458,47.8496914 C510.759375,50.8794753 522.046875,62.1628086 525.077778,76.5804012 L525.077778,47.8496914 L496.336458,47.8496914 Z M532.39375,47.8496914 C546.816667,50.8794753 558.104167,62.1628086 561.135069,76.5804012 L561.135069,47.8496914 L532.39375,47.8496914 Z M568.555556,47.8496914 C582.978472,50.8794753 594.265972,62.1628086 597.296875,76.5804012 L597.296875,47.8496914 L568.555556,47.8496914 Z M604.612847,47.8496914 C619.035764,50.8794753 630.323264,62.1628086 633.354167,76.5804012 L633.354167,47.8496914 L604.612847,47.8496914 Z M640.670139,47.8496914 C655.093056,50.8794753 666.380556,62.1628086 669.411458,76.5804012 L669.411458,47.8496914 L640.670139,47.8496914 Z M676.727431,47.8496914 C691.150347,50.8794753 702.437847,62.1628086 705.46875,76.5804012 L705.46875,47.8496914 L676.727431,47.8496914 Z M712.889236,47.8496914 C727.312153,50.8794753 738.599653,62.1628086 741.630556,76.5804012 L741.630556,47.8496914 L712.889236,47.8496914 Z M748.946528,47.8496914 C763.369444,50.8794753 774.656944,62.1628086 777.687847,76.5804012 L777.687847,47.8496914 L748.946528,47.8496914 Z M785.003819,47.8496914 C799.426736,50.8794753 810.714236,62.1628086 813.745139,76.5804012 L813.745139,47.8496914 L785.003819,47.8496914 Z M821.061111,47.8496914 C835.484028,50.8794753 846.771528,62.1628086 849.802431,76.5804012 L849.802431,47.8496914 L821.061111,47.8496914 Z M857.222917,47.8496914 C871.645833,50.8794753 882.933333,62.1628086 885.964236,76.5804012 L885.964236,47.8496914 L857.222917,47.8496914 Z M893.280208,47.8496914 C907.703125,50.8794753 918.990625,62.1628086 922.021528,76.5804012 L922.021528,47.8496914 L893.280208,47.8496914 Z M929.3375,47.8496914 C943.760417,50.8794753 955.047917,62.1628086 958.078819,76.5804012 L958.078819,47.8496914 L929.3375,47.8496914 Z M965.394792,47.8496914 C979.817708,50.8794753 991.105208,62.1628086 994.136111,76.5804012 L994.136111,47.8496914 L965.394792,47.8496914 Z M1001.45208,47.8496914 C1015.875,50.8794753 1027.1625,62.1628086 1030.1934,76.5804012 L1030.1934,47.8496914 L1001.45208,47.8496914 Z M1037.61389,47.8496914 C1052.03681,50.8794753 1063.32431,62.1628086 1066.35521,76.5804012 L1066.35521,47.8496914 L1037.61389,47.8496914 Z M1073.67118,47.8496914 C1088.0941,50.8794753 1099.3816,62.1628086 1102.4125,76.5804012 L1102.4125,47.8496914 L1073.67118,47.8496914 Z M1109.72847,47.8496914 C1124.15139,50.8794753 1135.43889,62.1628086 1138.46979,76.5804012 L1138.46979,47.8496914 L1109.72847,47.8496914 Z M1145.78576,47.8496914 C1160.20868,50.8794753 1171.49618,62.1628086 1174.52708,76.5804012 L1174.52708,47.8496914 L1145.78576,47.8496914 Z M1181.94757,47.8496914 C1190.93576,49.7302469 1198.66979,54.849537 1204,61.953858 L1204,47.8496914 L1181.94757,47.8496914 Z M0,11.7012346 L0,14.7310185 C10.0333333,19.7458333 17.5583333,29.1486111 19.9621528,40.4319444 L19.9621528,11.7012346 L0,11.7012346 Z M27.278125,11.7012346 C41.7010417,14.7310185 52.9885417,26.1188272 56.0194444,40.4319444 L56.0194444,11.7012346 L27.278125,11.7012346 Z M63.3354167,11.7012346 C77.7583333,14.7310185 89.0458333,26.1188272 92.0767361,40.4319444 L92.0767361,11.7012346 L63.3354167,11.7012346 Z M99.3927083,11.7012346 C113.815625,14.7310185 125.103125,26.0143519 128.134028,40.4319444 L128.134028,11.7012346 L99.3927083,11.7012346 Z M135.554514,11.7012346 C149.977431,14.7310185 161.264931,26.0143519 164.295833,40.4319444 L164.295833,11.7012346 L135.554514,11.7012346 Z M171.611806,11.7012346 C186.034722,14.7310185 197.322222,26.0143519 200.353125,40.4319444 L200.353125,11.7012346 L171.611806,11.7012346 Z M207.669097,11.7012346 C222.092014,14.7310185 233.379514,26.0143519 236.410417,40.4319444 L236.410417,11.7012346 L207.669097,11.7012346 Z M243.726389,11.7012346 C258.149306,14.7310185 269.436806,26.0143519 272.467708,40.4319444 L272.467708,11.7012346 L243.726389,11.7012346 Z M279.888194,11.7012346 C294.311111,14.7310185 305.598611,26.0143519 308.629514,40.4319444 L308.629514,11.7012346 L279.888194,11.7012346 Z M315.945486,11.7012346 C330.368403,14.7310185 341.655903,26.0143519 344.686806,40.4319444 L344.686806,11.7012346 L315.945486,11.7012346 Z M352.002778,11.7012346 C366.425694,14.7310185 377.713194,26.0143519 380.744097,40.4319444 L380.744097,11.7012346 L352.002778,11.7012346 Z M388.060069,11.7012346 C402.482986,14.7310185 413.770486,26.0143519 416.801389,40.4319444 L416.801389,11.7012346 L388.060069,11.7012346 Z M424.221875,11.7012346 C438.644792,14.7310185 449.932292,26.0143519 452.963194,40.4319444 L452.963194,11.7012346 L424.221875,11.7012346 Z M460.279167,11.7012346 C474.702083,14.7310185 485.989583,26.0143519 489.020486,40.4319444 L489.020486,11.7012346 L460.279167,11.7012346 Z M496.336458,11.7012346 C510.759375,14.7310185 522.046875,26.0143519 525.077778,40.4319444 L525.077778,11.7012346 L496.336458,11.7012346 Z M532.39375,11.7012346 C546.816667,14.7310185 558.104167,26.0143519 561.135069,40.4319444 L561.135069,11.7012346 L532.39375,11.7012346 Z M568.555556,11.7012346 C582.978472,14.7310185 594.265972,26.0143519 597.296875,40.4319444 L597.296875,11.7012346 L568.555556,11.7012346 Z M604.612847,11.7012346 C619.035764,14.7310185 630.323264,26.0143519 633.354167,40.4319444 L633.354167,11.7012346 L604.612847,11.7012346 Z M640.670139,11.7012346 C655.093056,14.7310185 666.380556,26.0143519 669.411458,40.4319444 L669.411458,11.7012346 L640.670139,11.7012346 Z M676.727431,11.7012346 C691.150347,14.7310185 702.437847,26.0143519 705.46875,40.4319444 L705.46875,11.7012346 L676.727431,11.7012346 Z M712.889236,11.7012346 C727.312153,14.7310185 738.599653,26.0143519 741.630556,40.4319444 L741.630556,11.7012346 L712.889236,11.7012346 Z M748.946528,11.7012346 C763.369444,14.7310185 774.656944,26.0143519 777.687847,40.4319444 L777.687847,11.7012346 L748.946528,11.7012346 Z M785.003819,11.7012346 C799.426736,14.7310185 810.714236,26.0143519 813.745139,40.4319444 L813.745139,11.7012346 L785.003819,11.7012346 Z M821.061111,11.7012346 C835.484028,14.7310185 846.771528,26.0143519 849.802431,40.4319444 L849.802431,11.7012346 L821.061111,11.7012346 Z M857.222917,11.7012346 C871.645833,14.7310185 882.933333,26.0143519 885.964236,40.4319444 L885.964236,11.7012346 L857.222917,11.7012346 Z M893.280208,11.7012346 C907.703125,14.7310185 918.990625,26.0143519 922.021528,40.4319444 L922.021528,11.7012346 L893.280208,11.7012346 Z M929.3375,11.7012346 C943.760417,14.7310185 955.047917,26.0143519 958.078819,40.4319444 L958.078819,11.7012346 L929.3375,11.7012346 Z M965.394792,11.7012346 C979.817708,14.7310185 991.105208,26.0143519 994.136111,40.4319444 L994.136111,11.7012346 L965.394792,11.7012346 Z M1001.45208,11.7012346 C1015.875,14.7310185 1027.1625,26.0143519 1030.1934,40.4319444 L1030.1934,11.7012346 L1001.45208,11.7012346 Z M1037.61389,11.7012346 C1052.03681,14.7310185 1063.32431,26.0143519 1066.35521,40.4319444 L1066.35521,11.7012346 L1037.61389,11.7012346 Z M1073.67118,11.7012346 C1088.0941,14.7310185 1099.3816,26.0143519 1102.4125,40.4319444 L1102.4125,11.7012346 L1073.67118,11.7012346 Z M1109.72847,11.7012346 C1124.15139,14.7310185 1135.43889,26.0143519 1138.46979,40.4319444 L1138.46979,11.7012346 L1109.72847,11.7012346 Z M1145.78576,11.7012346 C1160.20868,14.7310185 1171.49618,26.0143519 1174.52708,40.4319444 L1174.52708,11.7012346 L1145.78576,11.7012346 Z M1181.94757,11.7012346 C1190.93576,13.5817901 1198.66979,18.7010802 1204,25.8054012 L1204,11.7012346 L1181.94757,11.7012346 Z M18.7079861,0 C19.2305556,1.46265432 19.6486111,2.92530864 19.9621528,4.38796296 L19.9621528,0 L18.7079861,0 Z M54.7652778,0 C55.2878472,1.46265432 55.7059028,2.92530864 56.0194444,4.38796296 L56.0194444,0 L54.7652778,0 Z M90.9270833,0 C91.4496528,1.46265432 91.8677083,2.92530864 92.18125,4.38796296 L92.18125,0 L90.9270833,0 Z M126.984375,0 C127.506944,1.46265432 127.925,2.92530864 128.238542,4.38796296 L128.238542,0 L126.984375,0 Z M163.041667,0 C163.564236,1.46265432 163.982292,2.92530864 164.295833,4.38796296 L164.295833,0 L163.041667,0 Z M199.098958,0 C199.621528,1.46265432 200.039583,2.92530864 200.353125,4.38796296 L200.353125,0 L199.098958,0 Z M235.260764,0 C235.783333,1.46265432 236.201389,2.92530864 236.514931,4.38796296 L236.514931,0 L235.260764,0 Z M271.318056,0 C271.840625,1.46265432 272.258681,2.92530864 272.572222,4.38796296 L272.572222,0 L271.318056,0 Z M307.375347,0 C307.897917,1.46265432 308.315972,2.92530864 308.629514,4.38796296 L308.629514,0 L307.375347,0 Z M343.432639,0 C343.955208,1.46265432 344.373264,2.92530864 344.686806,4.38796296 L344.686806,0 L343.432639,0 Z M379.594444,0 C380.117014,1.46265432 380.535069,2.92530864 380.848611,4.38796296 L380.848611,0 L379.594444,0 Z M415.651736,0 C416.174306,1.46265432 416.592361,2.92530864 416.905903,4.38796296 L416.905903,0 L415.651736,0 Z M451.709028,0 C452.231597,1.46265432 452.649653,2.92530864 452.963194,4.38796296 L452.963194,0 L451.709028,0 Z M487.766319,0 C488.288889,1.46265432 488.706944,2.92530864 489.020486,4.38796296 L489.020486,0 L487.766319,0 Z M523.928125,0 C524.450694,1.46265432 524.86875,2.92530864 525.182292,4.38796296 L525.182292,0 L523.928125,0 Z M559.985417,0 C560.507986,1.46265432 560.926042,2.92530864 561.239583,4.38796296 L561.239583,0 L559.985417,0 Z M596.042708,0 C596.565278,1.46265432 596.983333,2.92530864 597.296875,4.38796296 L597.296875,0 L596.042708,0 Z M632.1,0 C632.622569,1.46265432 633.040625,2.92530864 633.354167,4.38796296 L633.354167,0 L632.1,0 Z M668.261806,0 C668.784375,1.46265432 669.202431,2.92530864 669.515972,4.38796296 L669.515972,0 L668.261806,0 Z M704.319097,0 C704.841667,1.46265432 705.259722,2.92530864 705.573264,4.38796296 L705.573264,0 L704.319097,0 Z M740.376389,0 C740.898958,1.46265432 741.317014,2.92530864 741.630556,4.38796296 L741.630556,0 L740.376389,0 Z M776.433681,0 C776.95625,1.46265432 777.374306,2.92530864 777.687847,4.38796296 L777.687847,0 L776.433681,0 Z M812.595486,0 C813.118056,1.46265432 813.536111,2.92530864 813.849653,4.38796296 L813.849653,0 L812.595486,0 Z M848.652778,0 C849.175347,1.46265432 849.593403,2.92530864 849.906944,4.38796296 L849.906944,0 L848.652778,0 Z M884.710069,0 C885.232639,1.46265432 885.650694,2.92530864 885.964236,4.38796296 L885.964236,0 L884.710069,0 Z M920.767361,0 C921.289931,1.46265432 921.707986,2.92530864 922.021528,4.38796296 L922.021528,0 L920.767361,0 Z M956.824653,0 C957.347222,1.46265432 957.765278,2.92530864 958.078819,4.38796296 L958.078819,0 L956.824653,0 Z M992.986458,0 C993.509028,1.46265432 993.927083,2.92530864 994.240625,4.38796296 L994.240625,0 L992.986458,0 Z M1029.04375,0 C1029.56632,1.46265432 1029.98438,2.92530864 1030.29792,4.38796296 L1030.29792,0 L1029.04375,0 Z M1065.10104,0 C1065.62361,1.46265432 1066.04167,2.92530864 1066.35521,4.38796296 L1066.35521,0 L1065.10104,0 Z M1101.15833,0 C1101.6809,1.46265432 1102.09896,2.92530864 1102.4125,4.38796296 L1102.4125,0 L1101.15833,0 Z M1137.32014,0 C1137.84271,1.46265432 1138.26076,2.92530864 1138.57431,4.38796296 L1138.57431,0 L1137.32014,0 Z M1173.37743,0 C1173.9,1.46265432 1174.31806,2.92530864 1174.6316,4.38796296 L1174.6316,0 L1173.37743,0 Z" id="path-1"></path>
        <linearGradient x1="62.4017777%" y1="41.4076665%" x2="10.4356842%" y2="77.3899883%" id="linearGradient-3">
            <stop stop-color="#1B8ECE" offset="0%"></stop>
            <stop stop-color="#1B8ECE" offset="16.08%"></stop>
            <stop stop-color="#1B8ECE" offset="100%"></stop>
        </linearGradient>
        <rect id="path-4" x="0" y="0" width="1204" height="677"></rect>
        <linearGradient x1="50%" y1="79.87765%" x2="48.3371936%" y2="28.9217231%" id="linearGradient-6">
            <stop stop-color="#141D41" offset="0%"></stop>
            <stop stop-color="#141D41" stop-opacity="0.941322593" offset="48.406462%"></stop>
            <stop stop-color="#141D41" stop-opacity="0.676908907" offset="100%"></stop>
        </linearGradient>
    </defs>
    <g id="Design-Wireframes--SSO" stroke="none" stroke-width="1" fill="none" fill-rule="evenodd">
        <g id="VisualUpdated:-Login-default" transform="translate(-144.000000, -149.000000)">
            <g id="Group-4" transform="translate(420.000000, 227.000000)">
                <g id="Group-8" transform="translate(-276.000000, -78.000000)">
                    <g id="backgroundd">
                        <rect id="Rectangle" fill="#0A2240" fill-rule="nonzero" x="0" y="0" width="1204" height="677"></rect>
                        <g id="Clipped">
                            <mask id="mask-2" fill="white">
                                <use xlink:href="#path-1"></use>
                            </mask>
                            <g id="SVGID_1_"></g>
                            <polygon id="Path" fill="url(#linearGradient-3)" fill-rule="nonzero" mask="url(#mask-2)" points="1522.87187 452.378086 399.452083 1243.67407 -318.871875 224.621914 804.547917 -566.674074"></polygon>
                        </g>
                        <g id="Clipped">
                            <mask id="mask-5" fill="white">
                                <use xlink:href="#path-4"></use>
                            </mask>
                            <g id="SVGID_00000041981918272903958380000002441900735308881536_"></g>
                        </g>
                        <rect id="Rectangle" x="157" y="99" width="958" height="539"></rect>
                    </g>
                    <rect id="Rectangle" fill="url(#linearGradient-6)" x="204" y="63" width="742" height="512"></rect>
                </g>
            </g>
        </g>
    </g>
</svg>